<?xml version="1.0" encoding="UTF-8" standalone="no"?>
<!DOCTYPE svg PUBLIC "-//W3C//DTD SVG 1.1//EN"
 "http://www.w3.org/Graphics/SVG/1.1/DTD/svg11.dtd">
<!-- Generated by graphviz version 2.43.0 (0)
 -->
<!-- Title: cluster0 Pages: 1 -->
<svg width="414pt" height="586pt"
 viewBox="0.00 0.00 413.50 586.00" xmlns="http://www.w3.org/2000/svg" xmlns:xlink="http://www.w3.org/1999/xlink">
<g id="graph0" class="graph" transform="scale(1 1) rotate(0) translate(4 582)">
<title>cluster0</title>
<polygon fill="white" stroke="transparent" points="-4,4 -4,-582 409.5,-582 409.5,4 -4,4"/>
<g id="clust1" class="cluster">
<title>clustera</title>
<polygon fill="lavender" stroke="lavender" points="101,-270 101,-436 365,-436 365,-270 101,-270"/>
<text text-anchor="middle" x="233" y="-420.8" font-family="Times,serif" font-size="14.00">autoencoder</text>
</g>
<g id="clust2" class="cluster">
<title>cluster1</title>
<polygon fill="none" stroke="black" points="109,-310 109,-373 357,-373 357,-310 109,-310"/>
<text text-anchor="middle" x="233" y="-357.8" font-family="Times,serif" font-size="14.00">embedding layer</text>
</g>
<g id="clust3" class="cluster">
<title>clusterb</title>
<polygon fill="lightblue" stroke="lightblue" points="8,-96 8,-262 336,-262 336,-96 8,-96"/>
<text text-anchor="middle" x="172" y="-246.8" font-family="Times,serif" font-size="14.00">embedding selection</text>
</g>
<g id="clust4" class="cluster">
<title>cluster3</title>
<polygon fill="none" stroke="black" points="16,-168 16,-231 328,-231 328,-168 16,-168"/>
<text text-anchor="middle" x="172" y="-215.8" font-family="Times,serif" font-size="14.00">decoded output</text>
</g>
<!-- e0 -->
<g id="node1" class="node">
<title>e0</title>
<polygon fill="none" stroke="black" points="200,-381.5 200,-404.5 274,-404.5 274,-381.5 200,-381.5"/>
<text text-anchor="middle" x="237" y="-389.3" font-family="Times,serif" font-size="14.00">encoder</text>
</g>
<!-- bot -->
<g id="node3" class="node">
<title>bot</title>
<polygon fill="none" stroke="black" points="116.5,-318.5 116.5,-341.5 349.5,-341.5 349.5,-318.5 116.5,-318.5"/>
<text text-anchor="middle" x="149" y="-326.3" font-family="Times,serif" font-size="14.00">n = 14</text>
<polyline fill="none" stroke="black" points="181.5,-318.5 181.5,-341.5 "/>
<text text-anchor="middle" x="209.5" y="-326.3" font-family="Times,serif" font-size="14.00">n = 7</text>
<polyline fill="none" stroke="black" points="237.5,-318.5 237.5,-341.5 "/>
<text text-anchor="middle" x="265.5" y="-326.3" font-family="Times,serif" font-size="14.00">n = 3</text>
<polyline fill="none" stroke="black" points="293.5,-318.5 293.5,-341.5 "/>
<text text-anchor="middle" x="321.5" y="-326.3" font-family="Times,serif" font-size="14.00">n = 2</text>
</g>
<!-- e0&#45;&gt;bot -->
<g id="edge4" class="edge">
<title>e0&#45;&gt;bot:b0</title>
<path fill="none" stroke="black" d="M199.94,-386.21C179.46,-381.01 156.92,-371.28 150.68,-353.22"/>
<polygon fill="black" stroke="black" points="154.08,-352.3 149,-343 147.17,-353.44 154.08,-352.3"/>
</g>
<!-- e0&#45;&gt;bot -->
<g id="edge5" class="edge">
<title>e0&#45;&gt;bot:b1</title>
<path fill="none" stroke="black" d="M226.57,-381.31C220.48,-374.18 213.42,-364.13 210.44,-353.21"/>
<polygon fill="black" stroke="black" points="213.86,-352.41 209,-343 206.93,-353.39 213.86,-352.41"/>
</g>
<!-- e0&#45;&gt;bot -->
<g id="edge6" class="edge">
<title>e0&#45;&gt;bot:b2</title>
<path fill="none" stroke="black" d="M247.8,-381.38C254.18,-374.2 261.58,-364.04 264.6,-352.94"/>
<polygon fill="black" stroke="black" points="268.07,-353.39 266,-343 261.14,-352.42 268.07,-353.39"/>
</g>
<!-- e0&#45;&gt;bot -->
<g id="edge7" class="edge">
<title>e0&#45;&gt;bot:b3</title>
<path fill="none" stroke="black" d="M274.03,-385.49C293.36,-380.09 314.22,-370.41 320.27,-353.29"/>
<polygon fill="black" stroke="black" points="323.79,-353.44 322,-343 316.89,-352.28 323.79,-353.44"/>
</g>
<!-- e2 -->
<g id="node2" class="node">
<title>e2</title>
<polygon fill="none" stroke="black" points="172,-278.5 172,-301.5 246,-301.5 246,-278.5 172,-278.5"/>
<text text-anchor="middle" x="209" y="-286.3" font-family="Times,serif" font-size="14.00">decoder</text>
</g>
<!-- out -->
<g id="node6" class="node">
<title>out</title>
<polygon fill="none" stroke="black" points="24,-176.5 24,-199.5 320,-199.5 320,-176.5 24,-176.5"/>
<text text-anchor="middle" x="61" y="-184.3" font-family="Times,serif" font-size="14.00">n = 116</text>
<polyline fill="none" stroke="black" points="98,-176.5 98,-199.5 "/>
<text text-anchor="middle" x="135" y="-184.3" font-family="Times,serif" font-size="14.00">n = 116</text>
<polyline fill="none" stroke="black" points="172,-176.5 172,-199.5 "/>
<text text-anchor="middle" x="209" y="-184.3" font-family="Times,serif" font-size="14.00">n = 116</text>
<polyline fill="none" stroke="black" points="246,-176.5 246,-199.5 "/>
<text text-anchor="middle" x="283" y="-184.3" font-family="Times,serif" font-size="14.00">n = 116</text>
</g>
<!-- e2&#45;&gt;out -->
<g id="edge12" class="edge">
<title>e2&#45;&gt;out:o0</title>
<path fill="none" stroke="black" d="M171.65,-283.4C130.81,-275.08 70.03,-255.37 61.91,-211.14"/>
<polygon fill="black" stroke="black" points="65.38,-210.65 61,-201 58.41,-211.27 65.38,-210.65"/>
</g>
<!-- e2&#45;&gt;out -->
<g id="edge13" class="edge">
<title>e2&#45;&gt;out:o1</title>
<path fill="none" stroke="black" d="M191.09,-278.39C171.32,-265.32 141.56,-241.1 135.93,-210.98"/>
<polygon fill="black" stroke="black" points="139.42,-210.63 135,-201 132.45,-211.28 139.42,-210.63"/>
</g>
<!-- e2&#45;&gt;out -->
<g id="edge14" class="edge">
<title>e2&#45;&gt;out:o2</title>
<path fill="none" stroke="black" d="M209,-278.43C209,-263.85 209,-236.46 209,-211"/>
<polygon fill="black" stroke="black" points="212.5,-211 209,-201 205.5,-211 212.5,-211"/>
</g>
<!-- e2&#45;&gt;out -->
<g id="edge15" class="edge">
<title>e2&#45;&gt;out:o3</title>
<path fill="none" stroke="black" d="M226.91,-278.39C246.68,-265.32 276.44,-241.1 282.07,-210.98"/>
<polygon fill="black" stroke="black" points="285.55,-211.28 283,-201 278.58,-210.63 285.55,-211.28"/>
</g>
<!-- bot&#45;&gt;e2 -->
<g id="edge8" class="edge">
<title>bot:b0&#45;&gt;e2</title>
<path fill="none" stroke="black" d="M149,-317C149,-308.27 154.41,-302.44 161.99,-298.55"/>
<polygon fill="black" stroke="black" points="163.61,-301.68 171.68,-294.83 161.09,-295.15 163.61,-301.68"/>
</g>
<!-- bot&#45;&gt;e2 -->
<g id="edge9" class="edge">
<title>bot:b1&#45;&gt;e2</title>
<path fill="none" stroke="black" d="M209,-317C209,-315.26 209,-313.46 209,-311.65"/>
<polygon fill="black" stroke="black" points="212.5,-311.63 209,-301.63 205.5,-311.63 212.5,-311.63"/>
</g>
<!-- bot&#45;&gt;e2 -->
<g id="edge10" class="edge">
<title>bot:b2&#45;&gt;e2</title>
<path fill="none" stroke="black" d="M266,-317C266,-309.37 261.72,-303.97 255.51,-300.15"/>
<polygon fill="black" stroke="black" points="256.62,-296.81 246.06,-295.86 253.72,-303.18 256.62,-296.81"/>
</g>
<!-- bot&#45;&gt;e2 -->
<g id="edge11" class="edge">
<title>bot:b3&#45;&gt;e2</title>
<path fill="none" stroke="black" d="M322,-317C322,-302.71 287.26,-296.28 256.3,-293.38"/>
<polygon fill="black" stroke="black" points="256.26,-289.86 246,-292.52 255.68,-296.84 256.26,-289.86"/>
</g>
<!-- clust -->
<g id="node10" class="node">
<title>clust</title>
<polygon fill="none" stroke="black" points="267.5,-64.5 267.5,-87.5 356.5,-87.5 356.5,-64.5 267.5,-64.5"/>
<text text-anchor="middle" x="312" y="-72.3" font-family="Times,serif" font-size="14.00">clustering</text>
</g>
<!-- bot&#45;&gt;clust -->
<g id="edge24" class="edge">
<title>bot:b3&#45;&gt;clust</title>
<path fill="none" stroke="black" d="M322,-317C322,-306.59 335.29,-311.29 340,-302 362.74,-257.11 347,-239.32 347,-189 347,-189 347,-189 347,-147 347,-123.9 349.22,-115.6 337,-96 336.82,-95.71 336.63,-95.41 336.43,-95.12"/>
<polygon fill="black" stroke="black" points="338.83,-92.57 329.47,-87.6 333.69,-97.32 338.83,-92.57"/>
</g>
<!-- mse -->
<g id="node4" class="node">
<title>mse</title>
<polygon fill="none" stroke="black" points="182,-136.5 182,-159.5 236,-159.5 236,-136.5 182,-136.5"/>
<text text-anchor="middle" x="209" y="-144.3" font-family="Times,serif" font-size="14.00">MSE</text>
</g>
<!-- aic -->
<g id="node5" class="node">
<title>aic</title>
<polygon fill="none" stroke="black" points="216,-104.5 216,-127.5 270,-127.5 270,-104.5 216,-104.5"/>
<text text-anchor="middle" x="243" y="-112.3" font-family="Times,serif" font-size="14.00">AIC</text>
</g>
<!-- mse&#45;&gt;aic -->
<g id="edge20" class="edge">
<title>mse&#45;&gt;aic</title>
<path fill="none" stroke="black" d="M221.27,-136.17C221.97,-135.55 222.68,-134.93 223.4,-134.29"/>
<polygon fill="black" stroke="black" points="225.9,-136.75 231.08,-127.51 221.27,-131.51 225.9,-136.75"/>
</g>
<!-- aic&#45;&gt;clust -->
<g id="edge21" class="edge">
<title>aic&#45;&gt;clust</title>
<path fill="none" stroke="black" d="M262.22,-104.41C268.95,-100.71 276.65,-96.47 283.95,-92.45"/>
<polygon fill="black" stroke="black" points="285.81,-95.42 292.88,-87.53 282.43,-89.29 285.81,-95.42"/>
</g>
<!-- out&#45;&gt;mse -->
<g id="edge16" class="edge">
<title>out:o0&#45;&gt;mse</title>
<path fill="none" stroke="black" d="M61,-175C61,-152.54 127.96,-148.53 171.8,-148.31"/>
<polygon fill="black" stroke="black" points="171.85,-151.81 181.85,-148.33 171.86,-144.81 171.85,-151.81"/>
</g>
<!-- out&#45;&gt;mse -->
<g id="edge17" class="edge">
<title>out:o1&#45;&gt;mse</title>
<path fill="none" stroke="black" d="M135,-175C135,-166.29 153.5,-159.79 172,-155.46"/>
<polygon fill="black" stroke="black" points="172.82,-158.87 181.87,-153.35 171.35,-152.02 172.82,-158.87"/>
</g>
<!-- out&#45;&gt;mse -->
<g id="edge18" class="edge">
<title>out:o2&#45;&gt;mse</title>
<path fill="none" stroke="black" d="M209,-175C209,-173.26 209,-171.46 209,-169.65"/>
<polygon fill="black" stroke="black" points="212.5,-169.63 209,-159.63 205.5,-169.63 212.5,-169.63"/>
</g>
<!-- out&#45;&gt;mse -->
<g id="edge19" class="edge">
<title>out:o3&#45;&gt;mse</title>
<path fill="none" stroke="black" d="M283,-175C283,-166.29 264.5,-159.79 246,-155.46"/>
<polygon fill="black" stroke="black" points="246.65,-152.02 236.13,-153.35 245.18,-158.87 246.65,-152.02"/>
</g>
<!-- pheno -->
<g id="node7" class="node">
<title>pheno</title>
<polygon fill="none" stroke="black" points="168.5,-554.5 168.5,-577.5 305.5,-577.5 305.5,-554.5 168.5,-554.5"/>
<text text-anchor="middle" x="237" y="-562.3" font-family="Times,serif" font-size="14.00">26 perturbations</text>
</g>
<!-- a -->
<g id="node8" class="node">
<title>a</title>
<polygon fill="none" stroke="black" points="156.5,-499.5 156.5,-545.5 317.5,-545.5 317.5,-499.5 156.5,-499.5"/>
<text text-anchor="middle" x="237" y="-530.3" font-family="Times,serif" font-size="14.00">segmentation</text>
<polyline fill="none" stroke="black" points="156.5,-522.5 317.5,-522.5 "/>
<text text-anchor="middle" x="237" y="-507.3" font-family="Times,serif" font-size="14.00">1831 embryo halves</text>
</g>
<!-- pheno&#45;&gt;a -->
<g id="edge1" class="edge">
<title>pheno&#45;&gt;a</title>
<path fill="none" stroke="black" d="M237,-554.1C237,-553.93 237,-553.77 237,-553.61"/>
<polygon fill="black" stroke="black" points="240.5,-555.74 237,-545.74 233.5,-555.74 240.5,-555.74"/>
</g>
<!-- b -->
<g id="node9" class="node">
<title>b</title>
<polygon fill="none" stroke="black" points="144.5,-444.5 144.5,-490.5 329.5,-490.5 329.5,-444.5 144.5,-444.5"/>
<text text-anchor="middle" x="237" y="-475.3" font-family="Times,serif" font-size="14.00">preprocessing</text>
<polyline fill="none" stroke="black" points="144.5,-467.5 329.5,-467.5 "/>
<text text-anchor="middle" x="237" y="-452.3" font-family="Times,serif" font-size="14.00">116 summary statistics</text>
</g>
<!-- a&#45;&gt;b -->
<g id="edge2" class="edge">
<title>a&#45;&gt;b</title>
<path fill="none" stroke="black" d="M237,-499.33C237,-499.24 237,-499.15 237,-499.06"/>
<polygon fill="black" stroke="black" points="240.5,-500.75 237,-490.75 233.5,-500.75 240.5,-500.75"/>
</g>
<!-- b&#45;&gt;e0 -->
<g id="edge3" class="edge">
<title>b&#45;&gt;e0</title>
<path fill="none" stroke="black" d="M237,-444.35C237,-435 237,-424.16 237,-414.94"/>
<polygon fill="black" stroke="black" points="240.5,-414.7 237,-404.7 233.5,-414.7 240.5,-414.7"/>
</g>
<!-- sel -->
<g id="node11" class="node">
<title>sel</title>
<polygon fill="none" stroke="black" points="245,-32.5 245,-55.5 379,-55.5 379,-32.5 245,-32.5"/>
<text text-anchor="middle" x="312" y="-40.3" font-family="Times,serif" font-size="14.00">cluster selection</text>
</g>
<!-- clust&#45;&gt;sel -->
<g id="edge22" class="edge">
<title>clust&#45;&gt;sel</title>
<path fill="none" stroke="black" d="M312,-64.17C312,-64.08 312,-63.99 312,-63.9"/>
<polygon fill="black" stroke="black" points="315.5,-65.51 312,-55.51 308.5,-65.51 315.5,-65.51"/>
</g>
<!-- eval -->
<g id="node12" class="node">
<title>eval</title>
<polygon fill="none" stroke="black" points="218.5,-0.5 218.5,-23.5 405.5,-23.5 405.5,-0.5 218.5,-0.5"/>
<text text-anchor="middle" x="312" y="-8.3" font-family="Times,serif" font-size="14.00">cluster characterization</text>
</g>
<!-- sel&#45;&gt;eval -->
<g id="edge23" class="edge">
<title>sel&#45;&gt;eval</title>
<path fill="none" stroke="black" d="M312,-32.17C312,-32.08 312,-31.99 312,-31.9"/>
<polygon fill="black" stroke="black" points="315.5,-33.51 312,-23.51 308.5,-33.51 315.5,-33.51"/>
</g>
</g>
</svg>
