<?xml version="1.0" encoding="UTF-8" standalone="no"?>
<!DOCTYPE svg PUBLIC "-//W3C//DTD SVG 1.1//EN"
 "http://www.w3.org/Graphics/SVG/1.1/DTD/svg11.dtd">
<!-- Generated by graphviz version 2.43.0 (0)
 -->
<!-- Title: cluster0 Pages: 1 -->
<svg width="524pt" height="841pt"
 viewBox="0.00 0.00 524.00 841.00" xmlns="http://www.w3.org/2000/svg" xmlns:xlink="http://www.w3.org/1999/xlink">
<g id="graph0" class="graph" transform="scale(1 1) rotate(0) translate(4 837)">
<title>cluster0</title>
<polygon fill="white" stroke="transparent" points="-4,4 -4,-837 520,-837 520,4 -4,4"/>
<g id="clust5" class="cluster">
<title>clusterortho</title>
<polygon fill="lightblue" stroke="lightblue" points="41,-377.5 41,-499 209,-499 209,-377.5 41,-377.5"/>
<text text-anchor="middle" x="125" y="-483.8" font-family="Times,serif" font-size="14.00">ortholog lookup</text>
</g>
<g id="clust8" class="cluster">
<title>cluster5</title>
<polygon fill="none" stroke="black" points="291,-79 291,-314.5 505,-314.5 505,-79 291,-79"/>
<text text-anchor="middle" x="398" y="-299.3" font-family="Times,serif" font-size="14.00">bootsrapping</text>
</g>
<!-- bot -->
<g id="node1" class="node">
<title>bot</title>
<polygon fill="none" stroke="black" points="219.5,-635.5 219.5,-658.5 452.5,-658.5 452.5,-635.5 219.5,-635.5"/>
<text text-anchor="middle" x="252" y="-643.3" font-family="Times,serif" font-size="14.00">n = 14</text>
<polyline fill="none" stroke="black" points="284.5,-635.5 284.5,-658.5 "/>
<text text-anchor="middle" x="312.5" y="-643.3" font-family="Times,serif" font-size="14.00">n = 7</text>
<polyline fill="none" stroke="black" points="340.5,-635.5 340.5,-658.5 "/>
<text text-anchor="middle" x="368.5" y="-643.3" font-family="Times,serif" font-size="14.00">n = 3</text>
<polyline fill="none" stroke="black" points="396.5,-635.5 396.5,-658.5 "/>
<text text-anchor="middle" x="424.5" y="-643.3" font-family="Times,serif" font-size="14.00">n = 2</text>
</g>
<!-- decoder -->
<g id="node3" class="node">
<title>decoder</title>
<polygon fill="none" stroke="black" points="317,-603.5 317,-626.5 391,-626.5 391,-603.5 317,-603.5"/>
<text text-anchor="middle" x="354" y="-611.3" font-family="Times,serif" font-size="14.00">decoder</text>
</g>
<!-- bot&#45;&gt;decoder -->
<g id="edge9" class="edge">
<title>bot:b0&#45;&gt;decoder</title>
<path fill="none" stroke="black" d="M252,-635C252,-622.9 280.09,-618.27 306.78,-616.6"/>
<polygon fill="black" stroke="black" points="307.07,-620.09 316.89,-616.09 306.72,-613.1 307.07,-620.09"/>
</g>
<!-- bot&#45;&gt;decoder -->
<g id="edge10" class="edge">
<title>bot:b1&#45;&gt;decoder</title>
<path fill="none" stroke="black" d="M312,-635C312,-634.59 312.02,-634.2 312.05,-633.81"/>
<polygon fill="black" stroke="black" points="315.26,-635.23 316.82,-624.75 309.06,-631.97 315.26,-635.23"/>
</g>
<!-- bot&#45;&gt;decoder -->
<g id="edge11" class="edge">
<title>bot:b2&#45;&gt;decoder</title>
<path fill="none" stroke="black" d="M369,-635C369,-634.91 369,-634.81 369,-634.72"/>
<polygon fill="black" stroke="black" points="372.77,-634.88 366.11,-626.65 366.18,-637.24 372.77,-634.88"/>
</g>
<!-- bot&#45;&gt;decoder -->
<g id="edge12" class="edge">
<title>bot:b3&#45;&gt;decoder</title>
<path fill="none" stroke="black" d="M425,-635C425,-628.63 414.21,-624.34 401.05,-621.48"/>
<polygon fill="black" stroke="black" points="401.64,-618.03 391.16,-619.64 400.35,-624.91 401.64,-618.03"/>
</g>
<!-- encoder -->
<g id="node2" class="node">
<title>encoder</title>
<polygon fill="none" stroke="black" points="304,-667.5 304,-690.5 378,-690.5 378,-667.5 304,-667.5"/>
<text text-anchor="middle" x="341" y="-675.3" font-family="Times,serif" font-size="14.00">encoder</text>
</g>
<!-- encoder&#45;&gt;bot -->
<g id="edge5" class="edge">
<title>encoder&#45;&gt;bot:b0</title>
<path fill="none" stroke="black" d="M303.77,-676.73C286.43,-675.38 267.58,-672.66 258.13,-667.17"/>
<polygon fill="black" stroke="black" points="260.8,-664.9 252,-659 255.2,-669.1 260.8,-664.9"/>
</g>
<!-- encoder&#45;&gt;bot -->
<g id="edge6" class="edge">
<title>encoder&#45;&gt;bot:b1</title>
<path fill="none" stroke="black" d="M315.33,-667.25C315.2,-667.11 315.08,-666.96 314.95,-666.82"/>
<polygon fill="black" stroke="black" points="318.81,-667.12 312,-659 312.26,-669.59 318.81,-667.12"/>
</g>
<!-- encoder&#45;&gt;bot -->
<g id="edge7" class="edge">
<title>encoder&#45;&gt;bot:b2</title>
<path fill="none" stroke="black" d="M365.57,-667.35C365.7,-667.21 365.83,-667.06 365.95,-666.92"/>
<polygon fill="black" stroke="black" points="368.67,-669.59 369,-659 362.14,-667.07 368.67,-669.59"/>
</g>
<!-- encoder&#45;&gt;bot -->
<g id="edge8" class="edge">
<title>encoder&#45;&gt;bot:b3</title>
<path fill="none" stroke="black" d="M378.09,-676.19C393.56,-674.71 409.93,-672.01 418.65,-667.12"/>
<polygon fill="black" stroke="black" points="421.6,-669.03 425,-659 416.08,-664.72 421.6,-669.03"/>
</g>
<!-- out -->
<g id="node4" class="node">
<title>out</title>
<polygon fill="none" stroke="black" points="206,-571.5 206,-594.5 502,-594.5 502,-571.5 206,-571.5"/>
<text text-anchor="middle" x="243" y="-579.3" font-family="Times,serif" font-size="14.00">n = 114</text>
<polyline fill="none" stroke="black" points="280,-571.5 280,-594.5 "/>
<text text-anchor="middle" x="317" y="-579.3" font-family="Times,serif" font-size="14.00">n = 114</text>
<polyline fill="none" stroke="black" points="354,-571.5 354,-594.5 "/>
<text text-anchor="middle" x="391" y="-579.3" font-family="Times,serif" font-size="14.00">n = 114</text>
<polyline fill="none" stroke="black" points="428,-571.5 428,-594.5 "/>
<text text-anchor="middle" x="465" y="-579.3" font-family="Times,serif" font-size="14.00">n = 114</text>
</g>
<!-- decoder&#45;&gt;out -->
<g id="edge13" class="edge">
<title>decoder&#45;&gt;out</title>
<path fill="none" stroke="black" d="M354,-603.17C354,-603.08 354,-602.99 354,-602.9"/>
<polygon fill="black" stroke="black" points="357.5,-604.51 354,-594.51 350.5,-604.51 357.5,-604.51"/>
</g>
<!-- mse -->
<g id="node5" class="node">
<title>mse</title>
<polygon fill="none" stroke="black" points="327,-539.5 327,-562.5 381,-562.5 381,-539.5 327,-539.5"/>
<text text-anchor="middle" x="354" y="-547.3" font-family="Times,serif" font-size="14.00">MSE</text>
</g>
<!-- out&#45;&gt;mse -->
<g id="edge14" class="edge">
<title>out&#45;&gt;mse</title>
<path fill="none" stroke="black" d="M354,-571.17C354,-571.08 354,-570.99 354,-570.9"/>
<polygon fill="black" stroke="black" points="357.5,-572.51 354,-562.51 350.5,-572.51 357.5,-572.51"/>
</g>
<!-- aic -->
<g id="node6" class="node">
<title>aic</title>
<polygon fill="none" stroke="black" points="327,-507.5 327,-530.5 381,-530.5 381,-507.5 327,-507.5"/>
<text text-anchor="middle" x="354" y="-515.3" font-family="Times,serif" font-size="14.00">AIC</text>
</g>
<!-- mse&#45;&gt;aic -->
<g id="edge15" class="edge">
<title>mse&#45;&gt;aic</title>
<path fill="none" stroke="black" d="M354,-539.17C354,-539.08 354,-538.99 354,-538.9"/>
<polygon fill="black" stroke="black" points="357.5,-540.51 354,-530.51 350.5,-540.51 357.5,-540.51"/>
</g>
<!-- d -->
<g id="node11" class="node">
<title>d</title>
<polygon fill="none" stroke="black" points="247.5,-437 247.5,-475 336.5,-475 336.5,-437 247.5,-437"/>
<text text-anchor="middle" x="292" y="-459.8" font-family="Times,serif" font-size="14.00">euclidean </text>
<text text-anchor="middle" x="292" y="-444.8" font-family="Times,serif" font-size="14.00">distance</text>
</g>
<!-- aic&#45;&gt;d -->
<g id="edge16" class="edge">
<title>aic&#45;&gt;d</title>
<path fill="none" stroke="black" d="M343.2,-507.37C336.15,-500.44 326.64,-491.08 317.72,-482.31"/>
<polygon fill="black" stroke="black" points="320.03,-479.67 310.44,-475.15 315.12,-484.66 320.03,-479.67"/>
</g>
<!-- train -->
<g id="node14" class="node">
<title>train</title>
<polygon fill="none" stroke="black" points="304,-237 304,-283 404,-283 404,-237 304,-237"/>
<text text-anchor="middle" x="354" y="-267.8" font-family="Times,serif" font-size="14.00">training set</text>
<polyline fill="none" stroke="black" points="304,-260 404,-260 "/>
<text text-anchor="middle" x="354" y="-244.8" font-family="Times,serif" font-size="14.00">90% data</text>
</g>
<!-- aic&#45;&gt;train -->
<g id="edge17" class="edge">
<title>aic&#45;&gt;train</title>
<path fill="none" stroke="black" d="M354,-507.28C354,-470.97 354,-351.63 354,-293.45"/>
<polygon fill="black" stroke="black" points="357.5,-293.34 354,-283.34 350.5,-293.34 357.5,-293.34"/>
</g>
<!-- test -->
<g id="node15" class="node">
<title>test</title>
<polygon fill="none" stroke="black" points="413,-127 413,-173 497,-173 497,-127 413,-127"/>
<text text-anchor="middle" x="455" y="-157.8" font-family="Times,serif" font-size="14.00">test set</text>
<polyline fill="none" stroke="black" points="413,-150 497,-150 "/>
<text text-anchor="middle" x="455" y="-134.8" font-family="Times,serif" font-size="14.00">10% data</text>
</g>
<!-- aic&#45;&gt;test -->
<g id="edge18" class="edge">
<title>aic&#45;&gt;test</title>
<path fill="none" stroke="black" d="M368.49,-507.38C391.3,-489.33 433,-450.26 433,-406 433,-406 433,-406 433,-259 433,-233.02 439.19,-204.22 445,-182.89"/>
<polygon fill="black" stroke="black" points="448.43,-183.65 447.8,-173.07 441.69,-181.73 448.43,-183.65"/>
</g>
<!-- sdb -->
<g id="node7" class="node">
<title>sdb</title>
<polygon fill="none" stroke="black" points="94,-444.5 94,-467.5 186,-467.5 186,-444.5 94,-444.5"/>
<text text-anchor="middle" x="140" y="-452.3" font-family="Times,serif" font-size="14.00">STRINGdb</text>
</g>
<!-- prot -->
<g id="node8" class="node">
<title>prot</title>
<polygon fill="none" stroke="black" points="49.5,-386 49.5,-424 200.5,-424 200.5,-386 49.5,-386"/>
<text text-anchor="middle" x="125" y="-408.8" font-family="Times,serif" font-size="14.00">protein interaction</text>
<text text-anchor="middle" x="125" y="-393.8" font-family="Times,serif" font-size="14.00">network</text>
</g>
<!-- sdb&#45;&gt;prot -->
<g id="edge32" class="edge">
<title>sdb&#45;&gt;prot</title>
<path fill="none" stroke="black" d="M136.67,-444.13C135.72,-441.01 134.63,-437.46 133.52,-433.82"/>
<polygon fill="black" stroke="black" points="136.83,-432.7 130.56,-424.16 130.14,-434.75 136.83,-432.7"/>
</g>
<!-- gsea0 -->
<g id="node9" class="node">
<title>gsea0</title>
<polygon fill="none" stroke="black" points="142,-323 142,-369 270,-369 270,-323 142,-323"/>
<text text-anchor="middle" x="206" y="-353.8" font-family="Times,serif" font-size="14.00">GSEA</text>
<polyline fill="none" stroke="black" points="142,-346 270,-346 "/>
<text text-anchor="middle" x="206" y="-330.8" font-family="Times,serif" font-size="14.00">sorted by count</text>
</g>
<!-- prot&#45;&gt;gsea0 -->
<g id="edge33" class="edge">
<title>prot&#45;&gt;gsea0</title>
<path fill="none" stroke="black" d="M150.63,-385.96C155.62,-382.45 160.95,-378.7 166.27,-374.95"/>
<polygon fill="black" stroke="black" points="168.4,-377.74 174.57,-369.12 164.38,-372.01 168.4,-377.74"/>
</g>
<!-- gene -->
<g id="node23" class="node">
<title>gene</title>
<polygon fill="none" stroke="black" points="0,-8 0,-31 114,-31 114,-8 0,-8"/>
<text text-anchor="middle" x="57" y="-15.8" font-family="Times,serif" font-size="14.00">gene network</text>
</g>
<!-- prot&#45;&gt;gene -->
<g id="edge41" class="edge">
<title>prot&#45;&gt;gene</title>
<path fill="none" stroke="black" d="M101.43,-385.8C82.03,-369.4 55.6,-343.47 42,-314.5 31.81,-292.79 35,-284.98 35,-261 35,-261 35,-261 35,-98 35,-78 41.86,-56.16 47.92,-40.78"/>
<polygon fill="black" stroke="black" points="51.27,-41.84 51.9,-31.26 44.81,-39.14 51.27,-41.84"/>
</g>
<!-- leiden -->
<g id="node13" class="node">
<title>leiden</title>
<polygon fill="none" stroke="black" points="139,-248.5 139,-271.5 273,-271.5 273,-248.5 139,-248.5"/>
<text text-anchor="middle" x="206" y="-256.3" font-family="Times,serif" font-size="14.00">leiden algorithm</text>
</g>
<!-- gsea0&#45;&gt;leiden -->
<g id="edge21" class="edge">
<title>gsea0&#45;&gt;leiden</title>
<path fill="none" stroke="black" d="M206,-322.93C206,-310.28 206,-294.48 206,-282.01"/>
<polygon fill="black" stroke="black" points="209.5,-281.68 206,-271.68 202.5,-281.68 209.5,-281.68"/>
</g>
<!-- ksel -->
<g id="node28" class="node">
<title>ksel</title>
<polygon fill="none" stroke="black" points="41.5,-248.5 41.5,-271.5 134.5,-271.5 134.5,-248.5 41.5,-248.5"/>
<text text-anchor="middle" x="88" y="-256.3" font-family="Times,serif" font-size="14.00">k selection</text>
</g>
<!-- gsea0&#45;&gt;ksel -->
<g id="edge34" class="edge">
<title>gsea0&#45;&gt;ksel</title>
<path fill="none" stroke="black" d="M152.29,-322.83C147.67,-320.24 143.17,-317.46 139,-314.5 125.17,-304.66 112.01,-290.71 102.53,-279.51"/>
<polygon fill="black" stroke="black" points="105.09,-277.12 96.04,-271.61 99.68,-281.56 105.09,-277.12"/>
</g>
<!-- inter -->
<g id="node10" class="node">
<title>inter</title>
<polygon fill="none" stroke="black" points="414,-809.5 414,-832.5 468,-832.5 468,-809.5 414,-809.5"/>
<text text-anchor="middle" x="441" y="-817.3" font-family="Times,serif" font-size="14.00">inter</text>
</g>
<!-- knn -->
<g id="node12" class="node">
<title>knn</title>
<polygon fill="none" stroke="black" points="217.5,-382 217.5,-428 342.5,-428 342.5,-382 217.5,-382"/>
<text text-anchor="middle" x="280" y="-412.8" font-family="Times,serif" font-size="14.00">knn graph</text>
<polyline fill="none" stroke="black" points="217.5,-405 342.5,-405 "/>
<text text-anchor="middle" x="280" y="-389.8" font-family="Times,serif" font-size="14.00">k ∈ {3,4,...,50}</text>
</g>
<!-- d&#45;&gt;knn -->
<g id="edge19" class="edge">
<title>d&#45;&gt;knn</title>
<path fill="none" stroke="black" d="M287.53,-436.75C287.51,-436.67 287.49,-436.58 287.47,-436.49"/>
<polygon fill="black" stroke="black" points="291.18,-436.95 285.41,-428.07 284.38,-438.62 291.18,-436.95"/>
</g>
<!-- knn&#45;&gt;gsea0 -->
<g id="edge20" class="edge">
<title>knn&#45;&gt;gsea0</title>
<path fill="none" stroke="black" d="M249.71,-381.8C247.01,-379.74 244.26,-377.63 241.52,-375.52"/>
<polygon fill="black" stroke="black" points="243.45,-372.58 233.4,-369.23 239.17,-378.12 243.45,-372.58"/>
</g>
<!-- knn&#45;&gt;gsea0 -->
<g id="edge39" class="edge">
<title>knn&#45;&gt;gsea0</title>
<path fill="none" stroke="black" d="M252.64,-381.8C249.99,-379.74 247.26,-377.63 244.52,-375.52"/>
<polygon fill="black" stroke="black" points="246.4,-372.54 236.33,-369.23 242.14,-378.1 246.4,-372.54"/>
</g>
<!-- gsea1 -->
<g id="node20" class="node">
<title>gsea1</title>
<polygon fill="none" stroke="black" points="116.5,-127 116.5,-173 283.5,-173 283.5,-127 116.5,-127"/>
<text text-anchor="middle" x="200" y="-157.8" font-family="Times,serif" font-size="14.00">GSEA</text>
<polyline fill="none" stroke="black" points="116.5,-150 283.5,-150 "/>
<text text-anchor="middle" x="200" y="-134.8" font-family="Times,serif" font-size="14.00">sorted by modularity</text>
</g>
<!-- knn&#45;&gt;gsea1 -->
<g id="edge40" class="edge">
<title>knn&#45;&gt;gsea1</title>
<path fill="none" stroke="black" d="M282.55,-381.99C285.57,-349.39 288.41,-286.72 273,-236.5 264.57,-209.03 258.17,-202.91 239,-181.5 238.68,-181.15 238.36,-180.8 238.04,-180.45"/>
<polygon fill="black" stroke="black" points="240.34,-177.8 230.75,-173.31 235.45,-182.81 240.34,-177.8"/>
</g>
<!-- clust -->
<g id="node27" class="node">
<title>clust</title>
<polygon fill="none" stroke="black" points="163,-182 163,-228 237,-228 237,-182 163,-182"/>
<text text-anchor="middle" x="200" y="-212.8" font-family="Times,serif" font-size="14.00">clusters</text>
<polyline fill="none" stroke="black" points="163,-205 237,-205 "/>
<text text-anchor="middle" x="200" y="-189.8" font-family="Times,serif" font-size="14.00">γ∈ℝ&gt; 0</text>
</g>
<!-- leiden&#45;&gt;clust -->
<g id="edge22" class="edge">
<title>leiden&#45;&gt;clust</title>
<path fill="none" stroke="black" d="M204.79,-248.27C204.45,-245.28 204.06,-241.86 203.66,-238.3"/>
<polygon fill="black" stroke="black" points="207.1,-237.64 202.5,-228.09 200.15,-238.42 207.1,-237.64"/>
</g>
<!-- knnsub -->
<g id="node16" class="node">
<title>knnsub</title>
<polygon fill="none" stroke="black" points="309.5,-186 309.5,-224 398.5,-224 398.5,-186 309.5,-186"/>
<text text-anchor="middle" x="354" y="-208.8" font-family="Times,serif" font-size="14.00">reduced </text>
<text text-anchor="middle" x="354" y="-193.8" font-family="Times,serif" font-size="14.00">knn graph</text>
</g>
<!-- train&#45;&gt;knnsub -->
<g id="edge24" class="edge">
<title>train&#45;&gt;knnsub</title>
<path fill="none" stroke="black" d="M354,-236.83C354,-236.04 354,-235.25 354,-234.46"/>
<polygon fill="black" stroke="black" points="357.5,-234.23 354,-224.23 350.5,-234.23 357.5,-234.23"/>
</g>
<!-- cv -->
<g id="node18" class="node">
<title>cv</title>
<polygon fill="none" stroke="black" points="299.5,-87.5 299.5,-110.5 424.5,-110.5 424.5,-87.5 299.5,-87.5"/>
<text text-anchor="middle" x="362" y="-95.3" font-family="Times,serif" font-size="14.00">crossvalidation</text>
</g>
<!-- test&#45;&gt;cv -->
<g id="edge27" class="edge">
<title>test&#45;&gt;cv</title>
<path fill="none" stroke="black" d="M413.13,-126.94C405.7,-123.02 398.12,-119.03 391.14,-115.35"/>
<polygon fill="black" stroke="black" points="392.56,-112.14 382.08,-110.58 389.3,-118.34 392.56,-112.14"/>
</g>
<!-- classifier -->
<g id="node17" class="node">
<title>classifier</title>
<polygon fill="none" stroke="black" points="299,-131 299,-169 409,-169 409,-131 299,-131"/>
<text text-anchor="middle" x="354" y="-153.8" font-family="Times,serif" font-size="14.00">reduced knn </text>
<text text-anchor="middle" x="354" y="-138.8" font-family="Times,serif" font-size="14.00">classifier</text>
</g>
<!-- knnsub&#45;&gt;classifier -->
<g id="edge25" class="edge">
<title>knnsub&#45;&gt;classifier</title>
<path fill="none" stroke="black" d="M354,-185.76C354,-183.66 354,-181.47 354,-179.27"/>
<polygon fill="black" stroke="black" points="357.5,-179.09 354,-169.09 350.5,-179.09 357.5,-179.09"/>
</g>
<!-- classifier&#45;&gt;cv -->
<g id="edge26" class="edge">
<title>classifier&#45;&gt;cv</title>
<path fill="none" stroke="black" d="M356.98,-130.75C357.51,-127.49 358.07,-124.06 358.62,-120.73"/>
<polygon fill="black" stroke="black" points="362.09,-121.15 360.25,-110.72 355.18,-120.02 362.09,-121.15"/>
</g>
<!-- ressel -->
<g id="node21" class="node">
<title>ressel</title>
<polygon fill="none" stroke="black" points="127.5,-47.5 127.5,-70.5 220.5,-70.5 220.5,-47.5 127.5,-47.5"/>
<text text-anchor="middle" x="174" y="-55.3" font-family="Times,serif" font-size="14.00">γ selection</text>
</g>
<!-- cv&#45;&gt;ressel -->
<g id="edge28" class="edge">
<title>cv&#45;&gt;ressel</title>
<path fill="none" stroke="black" d="M309.63,-87.41C285.09,-82.45 255.8,-76.53 230.74,-71.47"/>
<polygon fill="black" stroke="black" points="231.14,-67.98 220.64,-69.43 229.75,-74.84 231.14,-67.98"/>
</g>
<!-- sil -->
<g id="node19" class="node">
<title>sil</title>
<polygon fill="none" stroke="black" points="104,-80 104,-118 196,-118 196,-80 104,-80"/>
<text text-anchor="middle" x="150" y="-102.8" font-family="Times,serif" font-size="14.00">silhouette </text>
<text text-anchor="middle" x="150" y="-87.8" font-family="Times,serif" font-size="14.00">width</text>
</g>
<!-- sil&#45;&gt;ressel -->
<g id="edge30" class="edge">
<title>sil&#45;&gt;ressel</title>
<path fill="none" stroke="black" d="M161.44,-79.89C161.63,-79.59 161.82,-79.29 162.01,-78.99"/>
<polygon fill="black" stroke="black" points="164.97,-80.85 167.35,-70.52 159.06,-77.11 164.97,-80.85"/>
</g>
<!-- gsea1&#45;&gt;ressel -->
<g id="edge36" class="edge">
<title>gsea1&#45;&gt;ressel</title>
<path fill="none" stroke="black" d="M203.03,-126.75C203.98,-112.4 203.26,-93.74 196,-79 195.95,-78.9 195.9,-78.81 195.86,-78.71"/>
<polygon fill="black" stroke="black" points="198.58,-76.51 189.71,-70.71 193.03,-80.77 198.58,-76.51"/>
</g>
<!-- hyper -->
<g id="node22" class="node">
<title>hyper</title>
<polygon fill="none" stroke="black" points="129,-0.5 129,-38.5 259,-38.5 259,-0.5 129,-0.5"/>
<text text-anchor="middle" x="194" y="-23.3" font-family="Times,serif" font-size="14.00">hypergeometric</text>
<text text-anchor="middle" x="194" y="-8.3" font-family="Times,serif" font-size="14.00">test</text>
</g>
<!-- ressel&#45;&gt;hyper -->
<g id="edge37" class="edge">
<title>ressel&#45;&gt;hyper</title>
<path fill="none" stroke="black" d="M179.68,-47.35C179.72,-47.27 179.77,-47.19 179.81,-47.1"/>
<polygon fill="black" stroke="black" points="182.64,-49.24 184.26,-38.77 176.46,-45.94 182.64,-49.24"/>
</g>
<!-- ressel&#45;&gt;gene -->
<g id="edge42" class="edge">
<title>ressel&#45;&gt;gene</title>
<path fill="none" stroke="black" d="M141.1,-47.45C128.26,-43.34 113.38,-38.57 99.73,-34.2"/>
<polygon fill="black" stroke="black" points="100.65,-30.82 90.06,-31.1 98.52,-37.48 100.65,-30.82"/>
</g>
<!-- pheno -->
<g id="node24" class="node">
<title>pheno</title>
<polygon fill="none" stroke="black" points="272.5,-809.5 272.5,-832.5 409.5,-832.5 409.5,-809.5 272.5,-809.5"/>
<text text-anchor="middle" x="341" y="-817.3" font-family="Times,serif" font-size="14.00">26 perturbations</text>
</g>
<!-- pheno&#45;&gt;sdb -->
<g id="edge31" class="edge">
<title>pheno&#45;&gt;sdb</title>
<path fill="none" stroke="black" d="M278.21,-809.49C271.51,-807.19 264.97,-804.4 259,-801 217.63,-777.42 185,-771.12 185,-723.5 185,-723.5 185,-723.5 185,-550 185,-522.2 168.51,-493.98 155.49,-476.03"/>
<polygon fill="black" stroke="black" points="157.95,-473.48 149.11,-467.64 152.38,-477.71 157.95,-473.48"/>
</g>
<!-- pheno&#45;&gt;hyper -->
<g id="edge1" class="edge">
<title>pheno&#45;&gt;hyper</title>
<path fill="none" stroke="black" d="M409.66,-810.04C458.69,-798.58 516,-774.33 516,-723.5 516,-723.5 516,-723.5 516,-98 516,-47.52 364.49,-29.82 269.33,-23.69"/>
<polygon fill="black" stroke="black" points="269.36,-20.19 259.16,-23.07 268.93,-27.17 269.36,-20.19"/>
</g>
<!-- a -->
<g id="node25" class="node">
<title>a</title>
<polygon fill="none" stroke="black" points="260.5,-754.5 260.5,-800.5 421.5,-800.5 421.5,-754.5 260.5,-754.5"/>
<text text-anchor="middle" x="341" y="-785.3" font-family="Times,serif" font-size="14.00">segmentation</text>
<polyline fill="none" stroke="black" points="260.5,-777.5 421.5,-777.5 "/>
<text text-anchor="middle" x="341" y="-762.3" font-family="Times,serif" font-size="14.00">1703 embryo halves</text>
</g>
<!-- pheno&#45;&gt;a -->
<g id="edge2" class="edge">
<title>pheno&#45;&gt;a</title>
<path fill="none" stroke="black" d="M341,-809.1C341,-808.93 341,-808.77 341,-808.61"/>
<polygon fill="black" stroke="black" points="344.5,-810.74 341,-800.74 337.5,-810.74 344.5,-810.74"/>
</g>
<!-- b -->
<g id="node26" class="node">
<title>b</title>
<polygon fill="none" stroke="black" points="248.5,-699.5 248.5,-745.5 433.5,-745.5 433.5,-699.5 248.5,-699.5"/>
<text text-anchor="middle" x="341" y="-730.3" font-family="Times,serif" font-size="14.00">preprocessing</text>
<polyline fill="none" stroke="black" points="248.5,-722.5 433.5,-722.5 "/>
<text text-anchor="middle" x="341" y="-707.3" font-family="Times,serif" font-size="14.00">114 summary statistics</text>
</g>
<!-- a&#45;&gt;b -->
<g id="edge3" class="edge">
<title>a&#45;&gt;b</title>
<path fill="none" stroke="black" d="M341,-754.33C341,-754.24 341,-754.15 341,-754.06"/>
<polygon fill="black" stroke="black" points="344.5,-755.75 341,-745.75 337.5,-755.75 344.5,-755.75"/>
</g>
<!-- b&#45;&gt;encoder -->
<g id="edge4" class="edge">
<title>b&#45;&gt;encoder</title>
<path fill="none" stroke="black" d="M341,-699.29C341,-699.2 341,-699.11 341,-699.02"/>
<polygon fill="black" stroke="black" points="344.5,-700.86 341,-690.86 337.5,-700.86 344.5,-700.86"/>
</g>
<!-- clust&#45;&gt;classifier -->
<g id="edge23" class="edge">
<title>clust&#45;&gt;classifier</title>
<path fill="none" stroke="black" d="M237.28,-191.17C253.73,-185.51 273.51,-178.7 292.07,-172.31"/>
<polygon fill="black" stroke="black" points="293.33,-175.58 301.64,-169.02 291.05,-168.96 293.33,-175.58"/>
</g>
<!-- clust&#45;&gt;sil -->
<g id="edge29" class="edge">
<title>clust&#45;&gt;sil</title>
<path fill="none" stroke="black" d="M162.68,-199.92C145.81,-196 127.37,-188.36 117,-173.5 105.05,-156.37 107.97,-145.34 117,-126.5 117.05,-126.4 117.09,-126.31 117.14,-126.21"/>
<polygon fill="black" stroke="black" points="119.95,-128.3 122.76,-118.09 114.19,-124.32 119.95,-128.3"/>
</g>
<!-- clust&#45;&gt;gsea1 -->
<g id="edge35" class="edge">
<title>clust&#45;&gt;gsea1</title>
<path fill="none" stroke="black" d="M200,-181.83C200,-181.74 200,-181.65 200,-181.56"/>
<polygon fill="black" stroke="black" points="203.5,-183.25 200,-173.25 196.5,-183.25 203.5,-183.25"/>
</g>
<!-- clust&#45;&gt;ressel -->
<g id="edge38" class="edge">
<title>clust&#45;&gt;ressel</title>
<path fill="none" stroke="black" d="M163,-201.33C143.52,-197.88 121.03,-190.23 108,-173.5 82.17,-140.33 78.46,-112.39 104,-79 107.72,-74.13 112.56,-70.43 117.96,-67.62"/>
<polygon fill="black" stroke="black" points="119.56,-70.75 127.47,-63.7 116.89,-64.27 119.56,-70.75"/>
</g>
</g>
</svg>
