<?xml version="1.0" encoding="UTF-8" standalone="no"?>
<!DOCTYPE svg PUBLIC "-//W3C//DTD SVG 1.1//EN"
 "http://www.w3.org/Graphics/SVG/1.1/DTD/svg11.dtd">
<!-- Generated by graphviz version 2.43.0 (0)
 -->
<!-- Title: cluster0 Pages: 1 -->
<svg width="545pt" height="504pt"
 viewBox="0.00 0.00 545.00 504.00" xmlns="http://www.w3.org/2000/svg" xmlns:xlink="http://www.w3.org/1999/xlink">
<g id="graph0" class="graph" transform="scale(1 1) rotate(0) translate(4 500)">
<title>cluster0</title>
<polygon fill="white" stroke="transparent" points="-4,4 -4,-500 541,-500 541,4 -4,4"/>
<g id="clust1" class="cluster">
<title>cluster5</title>
<polygon fill="lavender" stroke="lavender" points="11,-137.5 11,-400 225,-400 225,-137.5 11,-137.5"/>
<text text-anchor="middle" x="118" y="-384.8" font-family="Times,serif" font-size="14.00">bootsrapping</text>
</g>
<g id="clust2" class="cluster">
<title>clustersel</title>
<polygon fill="lightblue" stroke="lightblue" points="235,-94 235,-212 514,-212 514,-94 235,-94"/>
<text text-anchor="middle" x="374.5" y="-196.8" font-family="Times,serif" font-size="14.00">cluster selection</text>
</g>
<g id="clust3" class="cluster">
<title>clusterval</title>
<polygon fill="lightblue" stroke="lightblue" points="171,-8 171,-86 435,-86 435,-8 171,-8"/>
<text text-anchor="middle" x="303" y="-70.8" font-family="Times,serif" font-size="14.00">cluster evaluation</text>
</g>
<!-- train -->
<g id="node1" class="node">
<title>train</title>
<polygon fill="none" stroke="black" points="40,-322.5 40,-368.5 140,-368.5 140,-322.5 40,-322.5"/>
<text text-anchor="middle" x="90" y="-353.3" font-family="Times,serif" font-size="14.00">training set</text>
<polyline fill="none" stroke="black" points="40,-345.5 140,-345.5 "/>
<text text-anchor="middle" x="90" y="-330.3" font-family="Times,serif" font-size="14.00">90% data</text>
</g>
<!-- knnsub -->
<g id="node3" class="node">
<title>knnsub</title>
<polygon fill="none" stroke="black" points="34.5,-275.5 34.5,-313.5 123.5,-313.5 123.5,-275.5 34.5,-275.5"/>
<text text-anchor="middle" x="79" y="-298.3" font-family="Times,serif" font-size="14.00">reduced </text>
<text text-anchor="middle" x="79" y="-283.3" font-family="Times,serif" font-size="14.00">knn graph</text>
</g>
<!-- train&#45;&gt;knnsub -->
<g id="edge9" class="edge">
<title>train&#45;&gt;knnsub</title>
<path fill="none" stroke="black" d="M85.01,-322.29C84.99,-322.2 84.97,-322.11 84.95,-322.02"/>
<polygon fill="black" stroke="black" points="88.65,-322.51 83.05,-313.52 81.82,-324.04 88.65,-322.51"/>
</g>
<!-- test -->
<g id="node2" class="node">
<title>test</title>
<polygon fill="none" stroke="black" points="133,-220.5 133,-266.5 217,-266.5 217,-220.5 133,-220.5"/>
<text text-anchor="middle" x="175" y="-251.3" font-family="Times,serif" font-size="14.00">test set</text>
<polyline fill="none" stroke="black" points="133,-243.5 217,-243.5 "/>
<text text-anchor="middle" x="175" y="-228.3" font-family="Times,serif" font-size="14.00">10% data</text>
</g>
<!-- cv -->
<g id="node5" class="node">
<title>cv</title>
<polygon fill="none" stroke="black" points="91.5,-146 91.5,-169 216.5,-169 216.5,-146 91.5,-146"/>
<text text-anchor="middle" x="154" y="-153.8" font-family="Times,serif" font-size="14.00">crossvalidation</text>
</g>
<!-- test&#45;&gt;cv -->
<g id="edge12" class="edge">
<title>test&#45;&gt;cv</title>
<path fill="none" stroke="black" d="M169.48,-220.43C166.29,-207.65 162.29,-191.66 159.16,-179.13"/>
<polygon fill="black" stroke="black" points="162.49,-178.03 156.67,-169.18 155.7,-179.73 162.49,-178.03"/>
</g>
<!-- classifier -->
<g id="node4" class="node">
<title>classifier</title>
<polygon fill="none" stroke="black" points="19,-224.5 19,-262.5 129,-262.5 129,-224.5 19,-224.5"/>
<text text-anchor="middle" x="74" y="-247.3" font-family="Times,serif" font-size="14.00">reduced knn </text>
<text text-anchor="middle" x="74" y="-232.3" font-family="Times,serif" font-size="14.00">classifier</text>
</g>
<!-- knnsub&#45;&gt;classifier -->
<g id="edge10" class="edge">
<title>knnsub&#45;&gt;classifier</title>
<path fill="none" stroke="black" d="M77.14,-275.25C77.06,-274.48 76.98,-273.69 76.9,-272.9"/>
<polygon fill="black" stroke="black" points="80.34,-272.19 75.85,-262.6 73.38,-272.9 80.34,-272.19"/>
</g>
<!-- classifier&#45;&gt;cv -->
<g id="edge11" class="edge">
<title>classifier&#45;&gt;cv</title>
<path fill="none" stroke="black" d="M91.36,-224.27C104.73,-210.24 123.13,-190.92 136.52,-176.85"/>
<polygon fill="black" stroke="black" points="139.4,-178.91 143.76,-169.25 134.33,-174.08 139.4,-178.91"/>
</g>
<!-- ressel -->
<g id="node8" class="node">
<title>ressel</title>
<polygon fill="none" stroke="black" points="260.5,-102.5 260.5,-125.5 353.5,-125.5 353.5,-102.5 260.5,-102.5"/>
<text text-anchor="middle" x="307" y="-110.3" font-family="Times,serif" font-size="14.00">γ selection</text>
</g>
<!-- cv&#45;&gt;ressel -->
<g id="edge13" class="edge">
<title>cv&#45;&gt;ressel</title>
<path fill="none" stroke="black" d="M191,-145.93C204.51,-142.11 219.93,-137.81 234,-134 241.21,-132.05 248.83,-130.02 256.31,-128.06"/>
<polygon fill="black" stroke="black" points="257.25,-131.43 266.04,-125.51 255.48,-124.66 257.25,-131.43"/>
</g>
<!-- sil -->
<g id="node6" class="node">
<title>sil</title>
<polygon fill="none" stroke="black" points="414,-138.5 414,-176.5 506,-176.5 506,-138.5 414,-138.5"/>
<text text-anchor="middle" x="460" y="-161.3" font-family="Times,serif" font-size="14.00">silhouette </text>
<text text-anchor="middle" x="460" y="-146.3" font-family="Times,serif" font-size="14.00">width</text>
</g>
<!-- sil&#45;&gt;ressel -->
<g id="edge15" class="edge">
<title>sil&#45;&gt;ressel</title>
<path fill="none" stroke="black" d="M422.42,-138.44C418.29,-136.8 414.09,-135.28 410,-134 395.33,-129.42 379.13,-125.79 363.99,-122.99"/>
<polygon fill="black" stroke="black" points="364.18,-119.47 353.72,-121.18 362.96,-126.36 364.18,-119.47"/>
</g>
<!-- gsea1 -->
<g id="node7" class="node">
<title>gsea1</title>
<polygon fill="none" stroke="black" points="242.5,-134.5 242.5,-180.5 409.5,-180.5 409.5,-134.5 242.5,-134.5"/>
<text text-anchor="middle" x="326" y="-165.3" font-family="Times,serif" font-size="14.00">GSEA</text>
<polyline fill="none" stroke="black" points="242.5,-157.5 409.5,-157.5 "/>
<text text-anchor="middle" x="326" y="-142.3" font-family="Times,serif" font-size="14.00">sorted by modularity</text>
</g>
<!-- gsea1&#45;&gt;ressel -->
<g id="edge17" class="edge">
<title>gsea1&#45;&gt;ressel</title>
<path fill="none" stroke="black" d="M315.83,-134.29C315.79,-134.2 315.75,-134.11 315.71,-134.02"/>
<polygon fill="black" stroke="black" points="319.32,-133.49 311.97,-125.86 312.95,-136.41 319.32,-133.49"/>
</g>
<!-- hyper -->
<g id="node9" class="node">
<title>hyper</title>
<polygon fill="none" stroke="black" points="179,-16.5 179,-54.5 309,-54.5 309,-16.5 179,-16.5"/>
<text text-anchor="middle" x="244" y="-39.3" font-family="Times,serif" font-size="14.00">hypergeometric</text>
<text text-anchor="middle" x="244" y="-24.3" font-family="Times,serif" font-size="14.00">test</text>
</g>
<!-- ressel&#45;&gt;hyper -->
<g id="edge18" class="edge">
<title>ressel&#45;&gt;hyper</title>
<path fill="none" stroke="black" d="M298.24,-102.36C289.84,-92.16 276.82,-76.35 265.64,-62.78"/>
<polygon fill="black" stroke="black" points="268.04,-60.18 258.98,-54.69 262.64,-64.63 268.04,-60.18"/>
</g>
<!-- gene -->
<g id="node10" class="node">
<title>gene</title>
<polygon fill="none" stroke="black" points="313,-24 313,-47 427,-47 427,-24 313,-24"/>
<text text-anchor="middle" x="370" y="-31.8" font-family="Times,serif" font-size="14.00">gene network</text>
</g>
<!-- ressel&#45;&gt;gene -->
<g id="edge21" class="edge">
<title>ressel&#45;&gt;gene</title>
<path fill="none" stroke="black" d="M315.76,-102.36C325.82,-90.15 342.51,-69.88 354.72,-55.05"/>
<polygon fill="black" stroke="black" points="357.66,-56.99 361.31,-47.05 352.26,-52.54 357.66,-56.99"/>
</g>
<!-- pheno -->
<g id="node11" class="node">
<title>pheno</title>
<polygon fill="none" stroke="black" points="41.5,-472.5 41.5,-495.5 178.5,-495.5 178.5,-472.5 41.5,-472.5"/>
<text text-anchor="middle" x="110" y="-480.3" font-family="Times,serif" font-size="14.00">26 perturbations</text>
</g>
<!-- pheno&#45;&gt;hyper -->
<g id="edge1" class="edge">
<title>pheno&#45;&gt;hyper</title>
<path fill="none" stroke="black" d="M53.07,-472.44C26.23,-463.83 0,-448.4 0,-421 0,-421 0,-421 0,-156.5 0,-80.19 97.28,-52.41 169,-42.29"/>
<polygon fill="black" stroke="black" points="169.48,-45.76 178.93,-40.98 168.56,-38.82 169.48,-45.76"/>
</g>
<!-- e -->
<g id="node12" class="node">
<title>e</title>
<polygon fill="none" stroke="black" points="57.5,-440.5 57.5,-463.5 162.5,-463.5 162.5,-440.5 57.5,-440.5"/>
<text text-anchor="middle" x="110" y="-448.3" font-family="Times,serif" font-size="14.00">autoencoder</text>
</g>
<!-- pheno&#45;&gt;e -->
<g id="edge2" class="edge">
<title>pheno&#45;&gt;e</title>
<path fill="none" stroke="black" d="M110,-472.17C110,-472.08 110,-471.99 110,-471.9"/>
<polygon fill="black" stroke="black" points="113.5,-473.51 110,-463.51 106.5,-473.51 113.5,-473.51"/>
</g>
<!-- prot -->
<g id="node14" class="node">
<title>prot</title>
<polygon fill="none" stroke="black" points="242.5,-275.5 242.5,-313.5 393.5,-313.5 393.5,-275.5 242.5,-275.5"/>
<text text-anchor="middle" x="318" y="-298.3" font-family="Times,serif" font-size="14.00">protein interaction</text>
<text text-anchor="middle" x="318" y="-283.3" font-family="Times,serif" font-size="14.00">network</text>
</g>
<!-- pheno&#45;&gt;prot -->
<g id="edge4" class="edge">
<title>pheno&#45;&gt;prot</title>
<path fill="none" stroke="black" d="M148.38,-472.4C154.17,-470.06 159.9,-467.28 165,-464 224.4,-425.84 275.42,-358.87 300.81,-321.89"/>
<polygon fill="black" stroke="black" points="303.71,-323.85 306.42,-313.6 297.92,-319.92 303.71,-323.85"/>
</g>
<!-- aic -->
<g id="node13" class="node">
<title>aic</title>
<polygon fill="none" stroke="black" points="28,-408.5 28,-431.5 192,-431.5 192,-408.5 28,-408.5"/>
<text text-anchor="middle" x="110" y="-416.3" font-family="Times,serif" font-size="14.00">embedding selection</text>
</g>
<!-- e&#45;&gt;aic -->
<g id="edge3" class="edge">
<title>e&#45;&gt;aic</title>
<path fill="none" stroke="black" d="M110,-440.17C110,-440.08 110,-439.99 110,-439.9"/>
<polygon fill="black" stroke="black" points="113.5,-441.51 110,-431.51 106.5,-441.51 113.5,-441.51"/>
</g>
<!-- aic&#45;&gt;train -->
<g id="edge5" class="edge">
<title>aic&#45;&gt;train</title>
<path fill="none" stroke="black" d="M107.05,-408.3C104.88,-400.42 101.8,-389.26 98.85,-378.59"/>
<polygon fill="black" stroke="black" points="102.14,-377.34 96.11,-368.63 95.39,-379.2 102.14,-377.34"/>
</g>
<!-- aic&#45;&gt;test -->
<g id="edge6" class="edge">
<title>aic&#45;&gt;test</title>
<path fill="none" stroke="black" d="M133.26,-408.41C136.59,-406.05 139.67,-403.26 142,-400 168.19,-363.47 174.41,-310.48 175.47,-276.76"/>
<polygon fill="black" stroke="black" points="178.98,-276.6 175.66,-266.53 171.98,-276.47 178.98,-276.6"/>
</g>
<!-- prot&#45;&gt;gene -->
<g id="edge20" class="edge">
<title>prot&#45;&gt;gene</title>
<path fill="none" stroke="black" d="M393.76,-283.01C437.1,-272.71 488.05,-252.31 515,-212 544.15,-168.4 544.47,-137.38 515,-94 497.37,-68.04 465.98,-53.8 436.91,-45.99"/>
<polygon fill="black" stroke="black" points="437.71,-42.58 427.16,-43.58 436.03,-49.37 437.71,-42.58"/>
</g>
<!-- clust -->
<g id="node15" class="node">
<title>clust</title>
<polygon fill="none" stroke="black" points="281,-220.5 281,-266.5 355,-266.5 355,-220.5 281,-220.5"/>
<text text-anchor="middle" x="318" y="-251.3" font-family="Times,serif" font-size="14.00">clusters</text>
<polyline fill="none" stroke="black" points="281,-243.5 355,-243.5 "/>
<text text-anchor="middle" x="318" y="-228.3" font-family="Times,serif" font-size="14.00">γ∈ℝ&gt; 0</text>
</g>
<!-- prot&#45;&gt;clust -->
<g id="edge7" class="edge">
<title>prot&#45;&gt;clust</title>
<path fill="none" stroke="black" d="M318,-275.25C318,-275.17 318,-275.08 318,-274.99"/>
<polygon fill="black" stroke="black" points="321.5,-276.57 318,-266.57 314.5,-276.57 321.5,-276.57"/>
</g>
<!-- clust&#45;&gt;cv -->
<g id="edge8" class="edge">
<title>clust&#45;&gt;cv</title>
<path fill="none" stroke="black" d="M280.81,-231.15C265.91,-226.06 248.81,-219.5 234,-212 213.32,-201.52 191.55,-186.68 175.95,-175.29"/>
<polygon fill="black" stroke="black" points="177.65,-172.19 167.54,-169.04 173.48,-177.81 177.65,-172.19"/>
</g>
<!-- clust&#45;&gt;sil -->
<g id="edge14" class="edge">
<title>clust&#45;&gt;sil</title>
<path fill="none" stroke="black" d="M355.25,-234.68C372.78,-229.9 393.42,-222.62 410,-212 421.37,-204.71 431.92,-194.26 440.37,-184.52"/>
<polygon fill="black" stroke="black" points="443.25,-186.53 446.94,-176.6 437.86,-182.06 443.25,-186.53"/>
</g>
<!-- clust&#45;&gt;gsea1 -->
<g id="edge16" class="edge">
<title>clust&#45;&gt;gsea1</title>
<path fill="none" stroke="black" d="M320.1,-220.43C320.97,-211.34 321.99,-200.63 322.93,-190.69"/>
<polygon fill="black" stroke="black" points="326.42,-191 323.88,-180.71 319.45,-190.34 326.42,-191"/>
</g>
<!-- clust&#45;&gt;ressel -->
<g id="edge19" class="edge">
<title>clust&#45;&gt;ressel</title>
<path fill="none" stroke="black" d="M280.67,-236.45C266.42,-232.13 251.55,-224.71 243,-212 223.65,-183.24 222.27,-161.78 243,-134 245.43,-130.75 248.39,-128.03 251.69,-125.76"/>
<polygon fill="black" stroke="black" points="253.36,-128.84 260.49,-121 250.03,-122.68 253.36,-128.84"/>
</g>
</g>
</svg>
