<?xml version="1.0" encoding="UTF-8" standalone="no"?>
<!DOCTYPE svg PUBLIC "-//W3C//DTD SVG 1.1//EN"
 "http://www.w3.org/Graphics/SVG/1.1/DTD/svg11.dtd">
<!-- Generated by graphviz version 2.43.0 (0)
 -->
<!-- Title: cluster0 Pages: 1 -->
<svg width="665pt" height="1200pt"
 viewBox="0.00 0.00 665.00 1200.00" xmlns="http://www.w3.org/2000/svg" xmlns:xlink="http://www.w3.org/1999/xlink">
<g id="graph0" class="graph" transform="scale(1 1) rotate(0) translate(4 1196)">
<title>cluster0</title>
<polygon fill="white" stroke="transparent" points="-4,4 -4,-1196 661,-1196 661,4 -4,4"/>
<g id="clust1" class="cluster">
<title>clustera</title>
<polygon fill="lavender" stroke="lavender" points="148,-884 148,-1050 412,-1050 412,-884 148,-884"/>
<text text-anchor="middle" x="280" y="-1034.8" font-family="Times,serif" font-size="14.00">autoencoder</text>
</g>
<g id="clust2" class="cluster">
<title>cluster1</title>
<polygon fill="none" stroke="black" points="156,-924 156,-987 404,-987 404,-924 156,-924"/>
<text text-anchor="middle" x="280" y="-971.8" font-family="Times,serif" font-size="14.00">embedding layer</text>
</g>
<g id="clust3" class="cluster">
<title>clusterb</title>
<polygon fill="lightblue" stroke="lightblue" points="42,-710 42,-876 370,-876 370,-710 42,-710"/>
<text text-anchor="middle" x="206" y="-860.8" font-family="Times,serif" font-size="14.00">embedding selection</text>
</g>
<g id="clust4" class="cluster">
<title>cluster3</title>
<polygon fill="none" stroke="black" points="50,-782 50,-845 362,-845 362,-782 50,-782"/>
<text text-anchor="middle" x="206" y="-829.8" font-family="Times,serif" font-size="14.00">decoded output</text>
</g>
<g id="clust5" class="cluster">
<title>clusterortho</title>
<polygon fill="lightblue" stroke="lightblue" points="478,-479 478,-624 646,-624 646,-479 478,-479"/>
<text text-anchor="middle" x="562" y="-608.8" font-family="Times,serif" font-size="14.00">ortholog lookup</text>
</g>
<g id="clust6" class="cluster">
<title>clusterc</title>
<polygon fill="lavender" stroke="lavender" points="230,-333.5 230,-702 470,-702 470,-333.5 230,-333.5"/>
<text text-anchor="middle" x="350" y="-686.8" font-family="Times,serif" font-size="14.00">clustering</text>
</g>
<g id="clust7" class="cluster">
<title>cluster0</title>
<polygon fill="none" stroke="black" points="248,-416 248,-549.5 462,-549.5 462,-416 248,-416"/>
<text text-anchor="middle" x="355" y="-534.3" font-family="Times,serif" font-size="14.00">k selection</text>
</g>
<g id="clust8" class="cluster">
<title>cluster5</title>
<polygon fill="lavender" stroke="lavender" points="8,-137.5 8,-408 222,-408 222,-137.5 8,-137.5"/>
<text text-anchor="middle" x="115" y="-392.8" font-family="Times,serif" font-size="14.00">bootsrapping</text>
</g>
<g id="clust9" class="cluster">
<title>clustersel</title>
<polygon fill="lightblue" stroke="lightblue" points="247,-94 247,-212 526,-212 526,-94 247,-94"/>
<text text-anchor="middle" x="386.5" y="-196.8" font-family="Times,serif" font-size="14.00">cluster selection</text>
</g>
<g id="clust10" class="cluster">
<title>clusterval</title>
<polygon fill="lightblue" stroke="lightblue" points="345,-8 345,-86 609,-86 609,-8 345,-8"/>
<text text-anchor="middle" x="477" y="-70.8" font-family="Times,serif" font-size="14.00">cluster evaluation</text>
</g>
<!-- e0 -->
<g id="node1" class="node">
<title>e0</title>
<polygon fill="none" stroke="black" points="276,-995.5 276,-1018.5 350,-1018.5 350,-995.5 276,-995.5"/>
<text text-anchor="middle" x="313" y="-1003.3" font-family="Times,serif" font-size="14.00">encoder</text>
</g>
<!-- bot -->
<g id="node3" class="node">
<title>bot</title>
<polygon fill="none" stroke="black" points="163.5,-932.5 163.5,-955.5 396.5,-955.5 396.5,-932.5 163.5,-932.5"/>
<text text-anchor="middle" x="196" y="-940.3" font-family="Times,serif" font-size="14.00">n = 14</text>
<polyline fill="none" stroke="black" points="228.5,-932.5 228.5,-955.5 "/>
<text text-anchor="middle" x="256.5" y="-940.3" font-family="Times,serif" font-size="14.00">n = 7</text>
<polyline fill="none" stroke="black" points="284.5,-932.5 284.5,-955.5 "/>
<text text-anchor="middle" x="312.5" y="-940.3" font-family="Times,serif" font-size="14.00">n = 3</text>
<polyline fill="none" stroke="black" points="340.5,-932.5 340.5,-955.5 "/>
<text text-anchor="middle" x="368.5" y="-940.3" font-family="Times,serif" font-size="14.00">n = 2</text>
</g>
<!-- e0&#45;&gt;bot -->
<g id="edge6" class="edge">
<title>e0&#45;&gt;bot:b0</title>
<path fill="none" stroke="black" d="M275.98,-1005.36C245.18,-1002.85 205.17,-994.26 197.35,-966.98"/>
<polygon fill="black" stroke="black" points="200.81,-966.44 196,-957 193.88,-967.38 200.81,-966.44"/>
</g>
<!-- e0&#45;&gt;bot -->
<g id="edge7" class="edge">
<title>e0&#45;&gt;bot:b1</title>
<path fill="none" stroke="black" d="M287.17,-995.49C275.15,-989.1 262.49,-979.72 257.85,-967.2"/>
<polygon fill="black" stroke="black" points="261.23,-966.22 256,-957 254.34,-967.46 261.23,-966.22"/>
</g>
<!-- e0&#45;&gt;bot -->
<g id="edge8" class="edge">
<title>e0&#45;&gt;bot:b2</title>
<path fill="none" stroke="black" d="M313,-995.49C313,-988.04 313,-977.58 313,-967.22"/>
<polygon fill="black" stroke="black" points="316.5,-967 313,-957 309.5,-967 316.5,-967"/>
</g>
<!-- e0&#45;&gt;bot -->
<g id="edge9" class="edge">
<title>e0&#45;&gt;bot:b3</title>
<path fill="none" stroke="black" d="M338.38,-995.38C350.19,-988.94 362.62,-979.55 367.18,-967.11"/>
<polygon fill="black" stroke="black" points="370.68,-967.46 369,-957 363.79,-966.22 370.68,-967.46"/>
</g>
<!-- e2 -->
<g id="node2" class="node">
<title>e2</title>
<polygon fill="none" stroke="black" points="212,-892.5 212,-915.5 286,-915.5 286,-892.5 212,-892.5"/>
<text text-anchor="middle" x="249" y="-900.3" font-family="Times,serif" font-size="14.00">decoder</text>
</g>
<!-- out -->
<g id="node6" class="node">
<title>out</title>
<polygon fill="none" stroke="black" points="58,-790.5 58,-813.5 354,-813.5 354,-790.5 58,-790.5"/>
<text text-anchor="middle" x="95" y="-798.3" font-family="Times,serif" font-size="14.00">n = 114</text>
<polyline fill="none" stroke="black" points="132,-790.5 132,-813.5 "/>
<text text-anchor="middle" x="169" y="-798.3" font-family="Times,serif" font-size="14.00">n = 114</text>
<polyline fill="none" stroke="black" points="206,-790.5 206,-813.5 "/>
<text text-anchor="middle" x="243" y="-798.3" font-family="Times,serif" font-size="14.00">n = 114</text>
<polyline fill="none" stroke="black" points="280,-790.5 280,-813.5 "/>
<text text-anchor="middle" x="317" y="-798.3" font-family="Times,serif" font-size="14.00">n = 114</text>
</g>
<!-- e2&#45;&gt;out -->
<g id="edge14" class="edge">
<title>e2&#45;&gt;out:o0</title>
<path fill="none" stroke="black" d="M211.72,-898.19C169.08,-890.51 104.06,-871.28 95.86,-824.96"/>
<polygon fill="black" stroke="black" points="99.35,-824.66 95,-815 92.37,-825.26 99.35,-824.66"/>
</g>
<!-- e2&#45;&gt;out -->
<g id="edge15" class="edge">
<title>e2&#45;&gt;out:o1</title>
<path fill="none" stroke="black" d="M228.81,-892.26C207.43,-879.42 175.93,-855.76 169.99,-825.17"/>
<polygon fill="black" stroke="black" points="173.45,-824.61 169,-815 166.48,-825.29 173.45,-824.61"/>
</g>
<!-- e2&#45;&gt;out -->
<g id="edge16" class="edge">
<title>e2&#45;&gt;out:o2</title>
<path fill="none" stroke="black" d="M247.81,-892.45C246.27,-877.88 243.7,-850.51 243.12,-825.02"/>
<polygon fill="black" stroke="black" points="246.62,-824.96 243,-815 239.62,-825.04 246.62,-824.96"/>
</g>
<!-- e2&#45;&gt;out -->
<g id="edge17" class="edge">
<title>e2&#45;&gt;out:o3</title>
<path fill="none" stroke="black" d="M265.12,-892.29C283.18,-879.01 310.67,-854.48 316.06,-825.13"/>
<polygon fill="black" stroke="black" points="319.56,-825.28 317,-815 312.59,-824.63 319.56,-825.28"/>
</g>
<!-- bot&#45;&gt;e2 -->
<g id="edge10" class="edge">
<title>bot:b0&#45;&gt;e2</title>
<path fill="none" stroke="black" d="M196,-931C196,-925.04 198.73,-920.45 202.96,-916.91"/>
<polygon fill="black" stroke="black" points="205.08,-919.72 211.9,-911.61 201.51,-913.7 205.08,-919.72"/>
</g>
<!-- bot&#45;&gt;e2 -->
<g id="edge11" class="edge">
<title>bot:b1&#45;&gt;e2</title>
<path fill="none" stroke="black" d="M256,-931C256,-929.23 255.85,-927.42 255.59,-925.61"/>
<polygon fill="black" stroke="black" points="258.95,-924.63 253.23,-915.71 252.14,-926.24 258.95,-924.63"/>
</g>
<!-- bot&#45;&gt;e2 -->
<g id="edge12" class="edge">
<title>bot:b2&#45;&gt;e2</title>
<path fill="none" stroke="black" d="M313,-931C313,-920.64 305.71,-914.31 296.05,-910.47"/>
<polygon fill="black" stroke="black" points="296.81,-907.05 286.23,-907.5 294.79,-913.75 296.81,-907.05"/>
</g>
<!-- bot&#45;&gt;e2 -->
<g id="edge13" class="edge">
<title>bot:b3&#45;&gt;e2</title>
<path fill="none" stroke="black" d="M369,-931C369,-915.45 330.02,-909.18 296.49,-906.66"/>
<polygon fill="black" stroke="black" points="296.52,-903.16 286.31,-905.99 296.06,-910.14 296.52,-903.16"/>
</g>
<!-- d -->
<g id="node11" class="node">
<title>d</title>
<polygon fill="none" stroke="black" points="283.5,-632.5 283.5,-670.5 372.5,-670.5 372.5,-632.5 283.5,-632.5"/>
<text text-anchor="middle" x="328" y="-655.3" font-family="Times,serif" font-size="14.00">euclidean </text>
<text text-anchor="middle" x="328" y="-640.3" font-family="Times,serif" font-size="14.00">distance</text>
</g>
<!-- bot&#45;&gt;d -->
<g id="edge26" class="edge">
<title>bot:b3&#45;&gt;d</title>
<path fill="none" stroke="black" d="M369,-931C369,-923.97 372.66,-922.9 374,-916 383.59,-866.6 381,-853.32 381,-803 381,-803 381,-803 381,-761 381,-737.9 380.37,-731.11 371,-710 366.03,-698.81 358.54,-687.74 351.2,-678.35"/>
<polygon fill="black" stroke="black" points="353.89,-676.1 344.86,-670.57 348.46,-680.53 353.89,-676.1"/>
</g>
<!-- mse -->
<g id="node4" class="node">
<title>mse</title>
<polygon fill="none" stroke="black" points="189,-750.5 189,-773.5 243,-773.5 243,-750.5 189,-750.5"/>
<text text-anchor="middle" x="216" y="-758.3" font-family="Times,serif" font-size="14.00">MSE</text>
</g>
<!-- aic -->
<g id="node5" class="node">
<title>aic</title>
<polygon fill="none" stroke="black" points="189,-718.5 189,-741.5 243,-741.5 243,-718.5 189,-718.5"/>
<text text-anchor="middle" x="216" y="-726.3" font-family="Times,serif" font-size="14.00">AIC</text>
</g>
<!-- mse&#45;&gt;aic -->
<g id="edge22" class="edge">
<title>mse&#45;&gt;aic</title>
<path fill="none" stroke="black" d="M216,-750.17C216,-750.08 216,-749.99 216,-749.9"/>
<polygon fill="black" stroke="black" points="219.5,-751.51 216,-741.51 212.5,-751.51 219.5,-751.51"/>
</g>
<!-- aic&#45;&gt;d -->
<g id="edge23" class="edge">
<title>aic&#45;&gt;d</title>
<path fill="none" stroke="black" d="M231.57,-718.36C247.35,-707.59 272.3,-690.55 292.86,-676.5"/>
<polygon fill="black" stroke="black" points="295.09,-679.22 301.37,-670.69 291.14,-673.44 295.09,-679.22"/>
</g>
<!-- train -->
<g id="node14" class="node">
<title>train</title>
<polygon fill="none" stroke="black" points="109,-330.5 109,-376.5 209,-376.5 209,-330.5 109,-330.5"/>
<text text-anchor="middle" x="159" y="-361.3" font-family="Times,serif" font-size="14.00">training set</text>
<polyline fill="none" stroke="black" points="109,-353.5 209,-353.5 "/>
<text text-anchor="middle" x="159" y="-338.3" font-family="Times,serif" font-size="14.00">90% data</text>
</g>
<!-- aic&#45;&gt;train -->
<g id="edge24" class="edge">
<title>aic&#45;&gt;train</title>
<path fill="none" stroke="black" d="M211.95,-718.48C203.14,-694.61 183,-634.31 183,-582 183,-582 183,-582 183,-505.5 183,-464.07 174.08,-417.02 167.11,-386.61"/>
<polygon fill="black" stroke="black" points="170.45,-385.51 164.75,-376.58 163.64,-387.12 170.45,-385.51"/>
</g>
<!-- test -->
<g id="node15" class="node">
<title>test</title>
<polygon fill="none" stroke="black" points="16,-220.5 16,-266.5 100,-266.5 100,-220.5 16,-220.5"/>
<text text-anchor="middle" x="58" y="-251.3" font-family="Times,serif" font-size="14.00">test set</text>
<polyline fill="none" stroke="black" points="16,-243.5 100,-243.5 "/>
<text text-anchor="middle" x="58" y="-228.3" font-family="Times,serif" font-size="14.00">10% data</text>
</g>
<!-- aic&#45;&gt;test -->
<g id="edge25" class="edge">
<title>aic&#45;&gt;test</title>
<path fill="none" stroke="black" d="M216,-718.3C216,-694.05 216,-633.04 216,-582 216,-582 216,-582 216,-352.5 216,-317.77 231.16,-298.94 206,-275 191.39,-261.11 139.74,-270.27 110.23,-267.54"/>
<polygon fill="black" stroke="black" points="110.57,-264.05 100.12,-265.84 109.4,-270.95 110.57,-264.05"/>
</g>
<!-- out&#45;&gt;mse -->
<g id="edge18" class="edge">
<title>out:o0&#45;&gt;mse</title>
<path fill="none" stroke="black" d="M95,-789C95,-771.64 143.19,-765.84 178.74,-763.92"/>
<polygon fill="black" stroke="black" points="179.02,-767.41 188.85,-763.46 178.7,-760.42 179.02,-767.41"/>
</g>
<!-- out&#45;&gt;mse -->
<g id="edge19" class="edge">
<title>out:o1&#45;&gt;mse</title>
<path fill="none" stroke="black" d="M169,-789C169,-781.63 173.48,-776.33 179.68,-772.53"/>
<polygon fill="black" stroke="black" points="181.35,-775.61 188.93,-768.21 178.39,-769.27 181.35,-775.61"/>
</g>
<!-- out&#45;&gt;mse -->
<g id="edge20" class="edge">
<title>out:o2&#45;&gt;mse</title>
<path fill="none" stroke="black" d="M243,-789C243,-786.32 242.3,-783.84 241.13,-781.55"/>
<polygon fill="black" stroke="black" points="243.78,-779.25 234.75,-773.71 238.35,-783.67 243.78,-779.25"/>
</g>
<!-- out&#45;&gt;mse -->
<g id="edge21" class="edge">
<title>out:o3&#45;&gt;mse</title>
<path fill="none" stroke="black" d="M317,-789C317,-775.37 282.09,-768.78 253.31,-765.66"/>
<polygon fill="black" stroke="black" points="253.36,-762.15 243.07,-764.67 252.68,-769.12 253.36,-762.15"/>
</g>
<!-- sdb -->
<g id="node7" class="node">
<title>sdb</title>
<polygon fill="none" stroke="black" points="501,-569.5 501,-592.5 593,-592.5 593,-569.5 501,-569.5"/>
<text text-anchor="middle" x="547" y="-577.3" font-family="Times,serif" font-size="14.00">STRINGdb</text>
</g>
<!-- prot -->
<g id="node8" class="node">
<title>prot</title>
<polygon fill="none" stroke="black" points="486.5,-487.5 486.5,-525.5 637.5,-525.5 637.5,-487.5 486.5,-487.5"/>
<text text-anchor="middle" x="562" y="-510.3" font-family="Times,serif" font-size="14.00">protein interaction</text>
<text text-anchor="middle" x="562" y="-495.3" font-family="Times,serif" font-size="14.00">network</text>
</g>
<!-- sdb&#45;&gt;prot -->
<g id="edge43" class="edge">
<title>sdb&#45;&gt;prot</title>
<path fill="none" stroke="black" d="M549.21,-569.3C551.05,-560.41 553.76,-547.33 556.21,-535.5"/>
<polygon fill="black" stroke="black" points="559.67,-536.06 558.26,-525.56 552.81,-534.64 559.67,-536.06"/>
</g>
<!-- gsea0 -->
<g id="node9" class="node">
<title>gsea0</title>
<polygon fill="none" stroke="black" points="291,-424.5 291,-470.5 419,-470.5 419,-424.5 291,-424.5"/>
<text text-anchor="middle" x="355" y="-455.3" font-family="Times,serif" font-size="14.00">GSEA</text>
<polyline fill="none" stroke="black" points="291,-447.5 419,-447.5 "/>
<text text-anchor="middle" x="355" y="-432.3" font-family="Times,serif" font-size="14.00">sorted by count</text>
</g>
<!-- prot&#45;&gt;gsea0 -->
<g id="edge44" class="edge">
<title>prot&#45;&gt;gsea0</title>
<path fill="none" stroke="black" d="M496.5,-487.46C474.94,-481.53 450.82,-474.89 428.69,-468.79"/>
<polygon fill="black" stroke="black" points="429.58,-465.41 419.01,-466.13 427.72,-472.15 429.58,-465.41"/>
</g>
<!-- gene -->
<g id="node23" class="node">
<title>gene</title>
<polygon fill="none" stroke="black" points="353,-24 353,-47 467,-47 467,-24 353,-24"/>
<text text-anchor="middle" x="410" y="-31.8" font-family="Times,serif" font-size="14.00">gene network</text>
</g>
<!-- prot&#45;&gt;gene -->
<g id="edge49" class="edge">
<title>prot&#45;&gt;gene</title>
<path fill="none" stroke="black" d="M558.64,-487.44C553.69,-459.19 545,-402.78 545,-354.5 545,-354.5 545,-354.5 545,-156.5 545,-127.59 548.81,-112.98 527,-94 508.03,-77.5 494.04,-96.06 471,-86 454.14,-78.64 438.12,-65.29 426.72,-54.31"/>
<polygon fill="black" stroke="black" points="429.16,-51.8 419.62,-47.19 424.21,-56.75 429.16,-51.8"/>
</g>
<!-- leiden -->
<g id="node13" class="node">
<title>leiden</title>
<polygon fill="none" stroke="black" points="238,-342 238,-365 372,-365 372,-342 238,-342"/>
<text text-anchor="middle" x="305" y="-349.8" font-family="Times,serif" font-size="14.00">leiden algorithm</text>
</g>
<!-- gsea0&#45;&gt;leiden -->
<g id="edge30" class="edge">
<title>gsea0&#45;&gt;leiden</title>
<path fill="none" stroke="black" d="M342.9,-424.23C334.63,-409.02 323.77,-389.05 315.8,-374.37"/>
<polygon fill="black" stroke="black" points="318.66,-372.3 310.81,-365.19 312.51,-375.65 318.66,-372.3"/>
</g>
<!-- inter -->
<g id="node10" class="node">
<title>inter</title>
<polygon fill="none" stroke="black" points="256.5,-495 256.5,-518 453.5,-518 453.5,-495 256.5,-495"/>
<text text-anchor="middle" x="355" y="-502.8" font-family="Times,serif" font-size="14.00">gene interaction network</text>
</g>
<!-- inter&#45;&gt;gsea0 -->
<g id="edge29" class="edge">
<title>inter&#45;&gt;gsea0</title>
<path fill="none" stroke="black" d="M355,-494.78C355,-490.72 355,-485.86 355,-480.84"/>
<polygon fill="black" stroke="black" points="358.5,-480.5 355,-470.5 351.5,-480.5 358.5,-480.5"/>
</g>
<!-- gsea1 -->
<g id="node20" class="node">
<title>gsea1</title>
<polygon fill="none" stroke="black" points="351.5,-134.5 351.5,-180.5 518.5,-180.5 518.5,-134.5 351.5,-134.5"/>
<text text-anchor="middle" x="435" y="-165.3" font-family="Times,serif" font-size="14.00">GSEA</text>
<polyline fill="none" stroke="black" points="351.5,-157.5 518.5,-157.5 "/>
<text text-anchor="middle" x="435" y="-142.3" font-family="Times,serif" font-size="14.00">sorted by modularity</text>
</g>
<!-- inter&#45;&gt;gsea1 -->
<g id="edge33" class="edge">
<title>inter&#45;&gt;gsea1</title>
<path fill="none" stroke="black" d="M390.43,-494.89C402.08,-489.61 413.86,-481.93 421,-471 449.39,-427.56 429,-406.4 429,-354.5 429,-354.5 429,-354.5 429,-297.5 429,-260.87 431.1,-218.87 432.82,-190.71"/>
<polygon fill="black" stroke="black" points="436.32,-190.84 433.45,-180.64 429.33,-190.4 436.32,-190.84"/>
</g>
<!-- knn -->
<g id="node12" class="node">
<title>knn</title>
<polygon fill="none" stroke="black" points="265.5,-558 265.5,-604 390.5,-604 390.5,-558 265.5,-558"/>
<text text-anchor="middle" x="328" y="-588.8" font-family="Times,serif" font-size="14.00">knn graph</text>
<polyline fill="none" stroke="black" points="265.5,-581 390.5,-581 "/>
<text text-anchor="middle" x="328" y="-565.8" font-family="Times,serif" font-size="14.00">k ∈ {3,4,...,50}</text>
</g>
<!-- d&#45;&gt;knn -->
<g id="edge27" class="edge">
<title>d&#45;&gt;knn</title>
<path fill="none" stroke="black" d="M328,-632.14C328,-626.66 328,-620.48 328,-614.37"/>
<polygon fill="black" stroke="black" points="331.5,-614.32 328,-604.32 324.5,-614.32 331.5,-614.32"/>
</g>
<!-- knn&#45;&gt;inter -->
<g id="edge28" class="edge">
<title>knn&#45;&gt;inter</title>
<path fill="none" stroke="black" d="M336.25,-557.85C339.81,-548.29 343.95,-537.18 347.43,-527.83"/>
<polygon fill="black" stroke="black" points="350.8,-528.8 351.01,-518.2 344.24,-526.35 350.8,-528.8"/>
</g>
<!-- knn&#45;&gt;leiden -->
<g id="edge34" class="edge">
<title>knn&#45;&gt;leiden</title>
<path fill="none" stroke="black" d="M265.31,-565.69C258.12,-561.58 251.7,-556.3 247,-549.5 213.24,-500.71 225.1,-471.14 247,-416 254.02,-398.32 268.8,-382.78 281.68,-371.74"/>
<polygon fill="black" stroke="black" points="284.22,-374.19 289.77,-365.16 279.81,-368.76 284.22,-374.19"/>
</g>
<!-- clust -->
<g id="node27" class="node">
<title>clust</title>
<polygon fill="none" stroke="black" points="264,-275.5 264,-321.5 338,-321.5 338,-275.5 264,-275.5"/>
<text text-anchor="middle" x="301" y="-306.3" font-family="Times,serif" font-size="14.00">clusters</text>
<polyline fill="none" stroke="black" points="264,-298.5 338,-298.5 "/>
<text text-anchor="middle" x="301" y="-283.3" font-family="Times,serif" font-size="14.00">γ∈ℝ&gt; 0</text>
</g>
<!-- leiden&#45;&gt;clust -->
<g id="edge31" class="edge">
<title>leiden&#45;&gt;clust</title>
<path fill="none" stroke="black" d="M304.19,-341.77C303.96,-338.78 303.71,-335.36 303.44,-331.8"/>
<polygon fill="black" stroke="black" points="306.91,-331.3 302.67,-321.59 299.93,-331.83 306.91,-331.3"/>
</g>
<!-- knnsub -->
<g id="node16" class="node">
<title>knnsub</title>
<polygon fill="none" stroke="black" points="114.5,-279.5 114.5,-317.5 203.5,-317.5 203.5,-279.5 114.5,-279.5"/>
<text text-anchor="middle" x="159" y="-302.3" font-family="Times,serif" font-size="14.00">reduced </text>
<text text-anchor="middle" x="159" y="-287.3" font-family="Times,serif" font-size="14.00">knn graph</text>
</g>
<!-- train&#45;&gt;knnsub -->
<g id="edge35" class="edge">
<title>train&#45;&gt;knnsub</title>
<path fill="none" stroke="black" d="M159,-330.33C159,-329.54 159,-328.75 159,-327.96"/>
<polygon fill="black" stroke="black" points="162.5,-327.73 159,-317.73 155.5,-327.73 162.5,-327.73"/>
</g>
<!-- cv -->
<g id="node18" class="node">
<title>cv</title>
<polygon fill="none" stroke="black" points="88.5,-146 88.5,-169 213.5,-169 213.5,-146 88.5,-146"/>
<text text-anchor="middle" x="151" y="-153.8" font-family="Times,serif" font-size="14.00">crossvalidation</text>
</g>
<!-- test&#45;&gt;cv -->
<g id="edge38" class="edge">
<title>test&#45;&gt;cv</title>
<path fill="none" stroke="black" d="M82.43,-220.43C97.73,-206.61 117.17,-189.05 131.44,-176.16"/>
<polygon fill="black" stroke="black" points="134.11,-178.48 139.18,-169.18 129.41,-173.28 134.11,-178.48"/>
</g>
<!-- classifier -->
<g id="node17" class="node">
<title>classifier</title>
<polygon fill="none" stroke="black" points="104,-224.5 104,-262.5 214,-262.5 214,-224.5 104,-224.5"/>
<text text-anchor="middle" x="159" y="-247.3" font-family="Times,serif" font-size="14.00">reduced knn </text>
<text text-anchor="middle" x="159" y="-232.3" font-family="Times,serif" font-size="14.00">classifier</text>
</g>
<!-- knnsub&#45;&gt;classifier -->
<g id="edge36" class="edge">
<title>knnsub&#45;&gt;classifier</title>
<path fill="none" stroke="black" d="M159,-279.26C159,-277.16 159,-274.97 159,-272.77"/>
<polygon fill="black" stroke="black" points="162.5,-272.59 159,-262.59 155.5,-272.59 162.5,-272.59"/>
</g>
<!-- classifier&#45;&gt;cv -->
<g id="edge37" class="edge">
<title>classifier&#45;&gt;cv</title>
<path fill="none" stroke="black" d="M157.26,-224.27C156,-211.02 154.29,-193.07 152.98,-179.26"/>
<polygon fill="black" stroke="black" points="156.46,-178.88 152.02,-169.25 149.49,-179.54 156.46,-178.88"/>
</g>
<!-- ressel -->
<g id="node21" class="node">
<title>ressel</title>
<polygon fill="none" stroke="black" points="290.5,-102.5 290.5,-125.5 383.5,-125.5 383.5,-102.5 290.5,-102.5"/>
<text text-anchor="middle" x="337" y="-110.3" font-family="Times,serif" font-size="14.00">γ selection</text>
</g>
<!-- cv&#45;&gt;ressel -->
<g id="edge39" class="edge">
<title>cv&#45;&gt;ressel</title>
<path fill="none" stroke="black" d="M194.45,-145.95C210.62,-142.09 229.13,-137.76 246,-134 257.09,-131.53 268.96,-128.98 280.34,-126.59"/>
<polygon fill="black" stroke="black" points="281.12,-130 290.19,-124.52 279.68,-123.15 281.12,-130"/>
</g>
<!-- sil -->
<g id="node19" class="node">
<title>sil</title>
<polygon fill="none" stroke="black" points="255,-138.5 255,-176.5 347,-176.5 347,-138.5 255,-138.5"/>
<text text-anchor="middle" x="301" y="-161.3" font-family="Times,serif" font-size="14.00">silhouette </text>
<text text-anchor="middle" x="301" y="-146.3" font-family="Times,serif" font-size="14.00">width</text>
</g>
<!-- sil&#45;&gt;ressel -->
<g id="edge41" class="edge">
<title>sil&#45;&gt;ressel</title>
<path fill="none" stroke="black" d="M316.89,-138.18C318.14,-136.74 319.39,-135.29 320.64,-133.86"/>
<polygon fill="black" stroke="black" points="323.59,-135.81 327.49,-125.96 318.3,-131.22 323.59,-135.81"/>
</g>
<!-- gsea1&#45;&gt;ressel -->
<g id="edge46" class="edge">
<title>gsea1&#45;&gt;ressel</title>
<path fill="none" stroke="black" d="M382.84,-134.41C378.96,-132.77 375.1,-131.13 371.37,-129.55"/>
<polygon fill="black" stroke="black" points="372.41,-126.2 361.84,-125.52 369.68,-132.64 372.41,-126.2"/>
</g>
<!-- hyper -->
<g id="node22" class="node">
<title>hyper</title>
<polygon fill="none" stroke="black" points="471,-16.5 471,-54.5 601,-54.5 601,-16.5 471,-16.5"/>
<text text-anchor="middle" x="536" y="-39.3" font-family="Times,serif" font-size="14.00">hypergeometric</text>
<text text-anchor="middle" x="536" y="-24.3" font-family="Times,serif" font-size="14.00">test</text>
</g>
<!-- ressel&#45;&gt;hyper -->
<g id="edge47" class="edge">
<title>ressel&#45;&gt;hyper</title>
<path fill="none" stroke="black" d="M383.56,-108.12C409,-104.29 440.62,-97.58 467,-86 481.34,-79.71 495.66,-70.11 507.51,-61.04"/>
<polygon fill="black" stroke="black" points="509.99,-63.54 515.66,-54.59 505.65,-58.05 509.99,-63.54"/>
</g>
<!-- ressel&#45;&gt;gene -->
<g id="edge50" class="edge">
<title>ressel&#45;&gt;gene</title>
<path fill="none" stroke="black" d="M347.15,-102.36C358.92,-90.03 378.51,-69.5 392.7,-54.63"/>
<polygon fill="black" stroke="black" points="395.56,-56.7 399.94,-47.05 390.5,-51.87 395.56,-56.7"/>
</g>
<!-- pheno -->
<g id="node24" class="node">
<title>pheno</title>
<polygon fill="none" stroke="black" points="410.5,-1168.5 410.5,-1191.5 547.5,-1191.5 547.5,-1168.5 410.5,-1168.5"/>
<text text-anchor="middle" x="479" y="-1176.3" font-family="Times,serif" font-size="14.00">26 perturbations</text>
</g>
<!-- pheno&#45;&gt;sdb -->
<g id="edge42" class="edge">
<title>pheno&#45;&gt;sdb</title>
<path fill="none" stroke="black" d="M484.27,-1168.3C492.38,-1150.8 507,-1114.77 507,-1082.5 507,-1082.5 507,-1082.5 507,-729 507,-682.33 526,-630.16 537.81,-602.24"/>
<polygon fill="black" stroke="black" points="541.15,-603.36 541.93,-592.79 534.73,-600.56 541.15,-603.36"/>
</g>
<!-- pheno&#45;&gt;inter -->
<g id="edge1" class="edge">
<title>pheno&#45;&gt;inter</title>
<path fill="none" stroke="black" d="M473.92,-1168.28C466.1,-1150.75 452,-1114.68 452,-1082.5 452,-1082.5 452,-1082.5 452,-650.5 452,-609.05 467.35,-592.41 445,-557.5 434.59,-541.24 416.95,-529.8 400.03,-522.01"/>
<polygon fill="black" stroke="black" points="401.32,-518.76 390.75,-518.05 398.57,-525.19 401.32,-518.76"/>
</g>
<!-- pheno&#45;&gt;hyper -->
<g id="edge2" class="edge">
<title>pheno&#45;&gt;hyper</title>
<path fill="none" stroke="black" d="M547.56,-1169.69C597.71,-1158.57 657,-1134.44 657,-1082.5 657,-1082.5 657,-1082.5 657,-156.5 657,-113.18 617.42,-80.16 583.53,-59.83"/>
<polygon fill="black" stroke="black" points="585.03,-56.65 574.62,-54.68 581.53,-62.71 585.03,-56.65"/>
</g>
<!-- a -->
<g id="node25" class="node">
<title>a</title>
<polygon fill="none" stroke="black" points="278.5,-1113.5 278.5,-1159.5 439.5,-1159.5 439.5,-1113.5 278.5,-1113.5"/>
<text text-anchor="middle" x="359" y="-1144.3" font-family="Times,serif" font-size="14.00">segmentation</text>
<polyline fill="none" stroke="black" points="278.5,-1136.5 439.5,-1136.5 "/>
<text text-anchor="middle" x="359" y="-1121.3" font-family="Times,serif" font-size="14.00">1703 embryo halves</text>
</g>
<!-- pheno&#45;&gt;a -->
<g id="edge3" class="edge">
<title>pheno&#45;&gt;a</title>
<path fill="none" stroke="black" d="M448.41,-1168.42C443.34,-1166.67 437.89,-1164.78 432.29,-1162.85"/>
<polygon fill="black" stroke="black" points="433.33,-1159.5 422.73,-1159.54 431.04,-1166.12 433.33,-1159.5"/>
</g>
<!-- b -->
<g id="node26" class="node">
<title>b</title>
<polygon fill="none" stroke="black" points="240.5,-1058.5 240.5,-1104.5 425.5,-1104.5 425.5,-1058.5 240.5,-1058.5"/>
<text text-anchor="middle" x="333" y="-1089.3" font-family="Times,serif" font-size="14.00">preprocessing</text>
<polyline fill="none" stroke="black" points="240.5,-1081.5 425.5,-1081.5 "/>
<text text-anchor="middle" x="333" y="-1066.3" font-family="Times,serif" font-size="14.00">114 summary statistics</text>
</g>
<!-- a&#45;&gt;b -->
<g id="edge4" class="edge">
<title>a&#45;&gt;b</title>
<path fill="none" stroke="black" d="M348.12,-1113.33C348.08,-1113.24 348.04,-1113.15 347.99,-1113.06"/>
<polygon fill="black" stroke="black" points="351.46,-1112.19 343.92,-1104.75 345.18,-1115.27 351.46,-1112.19"/>
</g>
<!-- b&#45;&gt;e0 -->
<g id="edge5" class="edge">
<title>b&#45;&gt;e0</title>
<path fill="none" stroke="black" d="M326.89,-1058.35C324.28,-1048.9 321.25,-1037.92 318.69,-1028.63"/>
<polygon fill="black" stroke="black" points="321.99,-1027.41 315.95,-1018.7 315.24,-1029.27 321.99,-1027.41"/>
</g>
<!-- clust&#45;&gt;classifier -->
<g id="edge32" class="edge">
<title>clust&#45;&gt;classifier</title>
<path fill="none" stroke="black" d="M263.69,-283.57C249.4,-278.24 232.74,-272.02 216.97,-266.14"/>
<polygon fill="black" stroke="black" points="217.88,-262.74 207.29,-262.52 215.44,-269.3 217.88,-262.74"/>
</g>
<!-- clust&#45;&gt;sil -->
<g id="edge40" class="edge">
<title>clust&#45;&gt;sil</title>
<path fill="none" stroke="black" d="M301,-275.48C301,-251.52 301,-213.16 301,-186.95"/>
<polygon fill="black" stroke="black" points="304.5,-186.87 301,-176.87 297.5,-186.87 304.5,-186.87"/>
</g>
<!-- clust&#45;&gt;gsea1 -->
<g id="edge45" class="edge">
<title>clust&#45;&gt;gsea1</title>
<path fill="none" stroke="black" d="M322.23,-275.48C344.94,-251.93 381.07,-214.45 406.29,-188.28"/>
<polygon fill="black" stroke="black" points="409,-190.51 413.42,-180.88 403.96,-185.65 409,-190.51"/>
</g>
<!-- clust&#45;&gt;ressel -->
<g id="edge48" class="edge">
<title>clust&#45;&gt;ressel</title>
<path fill="none" stroke="black" d="M283.52,-275.22C259.15,-241.28 221.52,-176.13 255,-134 258.76,-129.26 268.67,-125.6 280.36,-122.82"/>
<polygon fill="black" stroke="black" points="281.43,-126.17 290.5,-120.68 279.99,-119.32 281.43,-126.17"/>
</g>
</g>
</svg>
