<?xml version="1.0" encoding="UTF-8" standalone="no"?>
<!DOCTYPE svg PUBLIC "-//W3C//DTD SVG 1.1//EN"
 "http://www.w3.org/Graphics/SVG/1.1/DTD/svg11.dtd">
<!-- Generated by graphviz version 2.43.0 (0)
 -->
<!-- Title: cluster0 Pages: 1 -->
<svg width="501pt" height="846pt"
 viewBox="0.00 0.00 500.96 846.00" xmlns="http://www.w3.org/2000/svg" xmlns:xlink="http://www.w3.org/1999/xlink">
<g id="graph0" class="graph" transform="scale(1 1) rotate(0) translate(4 842)">
<title>cluster0</title>
<polygon fill="white" stroke="transparent" points="-4,4 -4,-842 496.96,-842 496.96,4 -4,4"/>
<g id="clust4" class="cluster">
<title>clustera</title>
<polygon fill="lavender" stroke="lavender" points="145.5,-229 145.5,-728 473.5,-728 473.5,-229 145.5,-229"/>
<text text-anchor="middle" x="309.5" y="-712.8" font-family="Times,serif" font-size="14.00">autoencoder</text>
</g>
<g id="clust5" class="cluster">
<title>cluster0</title>
<polygon fill="none" stroke="black" points="153.5,-542 153.5,-697 429.5,-697 429.5,-542 153.5,-542"/>
<text text-anchor="middle" x="291.5" y="-681.8" font-family="Times,serif" font-size="14.00">encoder</text>
</g>
<g id="clust6" class="cluster">
<title>cluster1</title>
<polygon fill="none" stroke="black" points="158.5,-471 158.5,-534 406.5,-534 406.5,-471 158.5,-471"/>
<text text-anchor="middle" x="282.5" y="-518.8" font-family="Times,serif" font-size="14.00">encoding layer</text>
</g>
<g id="clust7" class="cluster">
<title>cluster2</title>
<polygon fill="none" stroke="black" points="158.5,-308 158.5,-463 434.5,-463 434.5,-308 158.5,-308"/>
<text text-anchor="middle" x="296.5" y="-447.8" font-family="Times,serif" font-size="14.00">decoder</text>
</g>
<g id="clust8" class="cluster">
<title>cluster3</title>
<polygon fill="none" stroke="black" points="153.5,-237 153.5,-300 465.5,-300 465.5,-237 153.5,-237"/>
<text text-anchor="middle" x="309.5" y="-284.8" font-family="Times,serif" font-size="14.00">decoded output</text>
</g>
<g id="clust9" class="cluster">
<title>cluster4</title>
<polygon fill="lightblue" stroke="lightblue" points="99.5,-8 99.5,-153 241.5,-153 241.5,-8 99.5,-8"/>
<text text-anchor="middle" x="170.5" y="-137.8" font-family="Times,serif" font-size="14.00">clustering</text>
</g>
<g id="clust10" class="cluster">
<title>cluster5</title>
<polygon fill="lightblue" stroke="lightblue" points="249.5,-71 249.5,-157 453.5,-157 453.5,-71 249.5,-71"/>
<text text-anchor="middle" x="351.5" y="-141.8" font-family="Times,serif" font-size="14.00">bootsrapping</text>
</g>
<!-- sel -->
<g id="node1" class="node">
<title>sel</title>
<polygon fill="yellow" stroke="black" points="235.5,-165.5 235.5,-188.5 363.5,-188.5 363.5,-165.5 235.5,-165.5"/>
<text text-anchor="middle" x="299.5" y="-173.3" font-family="Times,serif" font-size="14.00">model selection</text>
</g>
<!-- d -->
<g id="node11" class="node">
<title>d</title>
<polygon fill="none" stroke="black" points="135,-83.5 135,-121.5 224,-121.5 224,-83.5 135,-83.5"/>
<text text-anchor="middle" x="179.5" y="-106.3" font-family="Times,serif" font-size="14.00">euclidean </text>
<text text-anchor="middle" x="179.5" y="-91.3" font-family="Times,serif" font-size="14.00">distance</text>
</g>
<!-- sel&#45;&gt;d -->
<g id="edge29" class="edge">
<title>sel&#45;&gt;d</title>
<path fill="none" stroke="black" d="M266.74,-165.47C260.53,-163.01 254.2,-160.17 248.5,-157 234.08,-148.97 219.45,-138.09 207.39,-128.25"/>
<polygon fill="black" stroke="black" points="209.4,-125.37 199.48,-121.64 204.91,-130.74 209.4,-125.37"/>
</g>
<!-- train -->
<g id="node12" class="node">
<title>train</title>
<polygon fill="none" stroke="black" points="345.5,-79.5 345.5,-125.5 445.5,-125.5 445.5,-79.5 345.5,-79.5"/>
<text text-anchor="middle" x="395.5" y="-110.3" font-family="Times,serif" font-size="14.00">training set</text>
<polyline fill="none" stroke="black" points="345.5,-102.5 445.5,-102.5 "/>
<text text-anchor="middle" x="395.5" y="-87.3" font-family="Times,serif" font-size="14.00">90% data</text>
</g>
<!-- sel&#45;&gt;train -->
<g id="edge31" class="edge">
<title>sel&#45;&gt;train</title>
<path fill="none" stroke="black" d="M326.93,-165.3C331.95,-162.87 337.02,-160.09 341.5,-157 351.42,-150.17 361.13,-141.41 369.52,-132.97"/>
<polygon fill="black" stroke="black" points="372.12,-135.32 376.53,-125.68 367.07,-130.46 372.12,-135.32"/>
</g>
<!-- test -->
<g id="node13" class="node">
<title>test</title>
<polygon fill="none" stroke="black" points="257.5,-79.5 257.5,-125.5 341.5,-125.5 341.5,-79.5 257.5,-79.5"/>
<text text-anchor="middle" x="299.5" y="-110.3" font-family="Times,serif" font-size="14.00">test set</text>
<polyline fill="none" stroke="black" points="257.5,-102.5 341.5,-102.5 "/>
<text text-anchor="middle" x="299.5" y="-87.3" font-family="Times,serif" font-size="14.00">10% data</text>
</g>
<!-- sel&#45;&gt;test -->
<g id="edge32" class="edge">
<title>sel&#45;&gt;test</title>
<path fill="none" stroke="black" d="M299.5,-165.3C299.5,-157.5 299.5,-146.49 299.5,-135.92"/>
<polygon fill="black" stroke="black" points="303,-135.63 299.5,-125.63 296,-135.63 303,-135.63"/>
</g>
<!-- mse -->
<g id="node2" class="node">
<title>mse</title>
<polygon fill="lightpink" stroke="black" points="279.5,-197.5 279.5,-220.5 333.5,-220.5 333.5,-197.5 279.5,-197.5"/>
<text text-anchor="middle" x="306.5" y="-205.3" font-family="Times,serif" font-size="14.00">MSE</text>
</g>
<!-- mse&#45;&gt;sel -->
<g id="edge3" class="edge">
<title>mse&#45;&gt;sel</title>
<path fill="none" stroke="black" d="M303.97,-197.17C303.95,-197.08 303.93,-196.99 303.91,-196.9"/>
<polygon fill="black" stroke="black" points="307.63,-197.46 301.95,-188.51 300.82,-199.05 307.63,-197.46"/>
</g>
<!-- a -->
<g id="node3" class="node">
<title>a</title>
<polygon fill="lightgrey" stroke="black" points="244,-791.5 244,-837.5 405,-837.5 405,-791.5 244,-791.5"/>
<text text-anchor="middle" x="324.5" y="-822.3" font-family="Times,serif" font-size="14.00">segmentation</text>
<polyline fill="none" stroke="black" points="244,-814.5 405,-814.5 "/>
<text text-anchor="middle" x="324.5" y="-799.3" font-family="Times,serif" font-size="14.00">1703 embryo halves</text>
</g>
<!-- b -->
<g id="node4" class="node">
<title>b</title>
<polygon fill="lightgrey" stroke="black" points="232,-736.5 232,-782.5 417,-782.5 417,-736.5 232,-736.5"/>
<text text-anchor="middle" x="324.5" y="-767.3" font-family="Times,serif" font-size="14.00">preprocessing</text>
<polyline fill="none" stroke="black" points="232,-759.5 417,-759.5 "/>
<text text-anchor="middle" x="324.5" y="-744.3" font-family="Times,serif" font-size="14.00">114 summary statistics</text>
</g>
<!-- a&#45;&gt;b -->
<g id="edge1" class="edge">
<title>a&#45;&gt;b</title>
<path fill="none" stroke="black" d="M324.5,-791.33C324.5,-791.24 324.5,-791.15 324.5,-791.06"/>
<polygon fill="black" stroke="black" points="328,-792.75 324.5,-782.75 321,-792.75 328,-792.75"/>
</g>
<!-- b&#45;&gt;mse -->
<g id="edge2" class="edge">
<title>b&#45;&gt;mse</title>
<path fill="none" stroke="black" d="M417.24,-738.91C422.07,-735.79 426.55,-732.17 430.5,-728 504.45,-649.84 484.5,-599.6 484.5,-492 484.5,-492 484.5,-492 484.5,-373 484.5,-308.5 512.25,-274.47 466.5,-229 449.76,-212.37 385.6,-209.4 343.79,-209.32"/>
<polygon fill="black" stroke="black" points="343.67,-205.82 333.68,-209.35 343.69,-212.82 343.67,-205.82"/>
</g>
<!-- e0 -->
<g id="node7" class="node">
<title>e0</title>
<polygon fill="none" stroke="black" points="161.5,-550.5 161.5,-665.5 421.5,-665.5 421.5,-550.5 161.5,-550.5"/>
<text text-anchor="middle" x="194" y="-633.3" font-family="Times,serif" font-size="14.00">n = 58</text>
<polyline fill="none" stroke="black" points="161.5,-608.5 226.5,-608.5 "/>
<text text-anchor="middle" x="194" y="-575.8" font-family="Times,serif" font-size="14.00">n = 29</text>
<polyline fill="none" stroke="black" points="226.5,-550.5 226.5,-665.5 "/>
<text text-anchor="middle" x="259" y="-642.8" font-family="Times,serif" font-size="14.00">n = 58</text>
<polyline fill="none" stroke="black" points="226.5,-627.5 291.5,-627.5 "/>
<text text-anchor="middle" x="259" y="-604.8" font-family="Times,serif" font-size="14.00">n = 29</text>
<polyline fill="none" stroke="black" points="226.5,-589.5 291.5,-589.5 "/>
<text text-anchor="middle" x="259" y="-566.3" font-family="Times,serif" font-size="14.00">n = 14</text>
<polyline fill="none" stroke="black" points="291.5,-550.5 291.5,-665.5 "/>
<text text-anchor="middle" x="324" y="-647.8" font-family="Times,serif" font-size="14.00">n = 58</text>
<polyline fill="none" stroke="black" points="291.5,-637.5 356.5,-637.5 "/>
<text text-anchor="middle" x="324" y="-619.3" font-family="Times,serif" font-size="14.00">n = 29</text>
<polyline fill="none" stroke="black" points="291.5,-608.5 356.5,-608.5 "/>
<text text-anchor="middle" x="324" y="-590.3" font-family="Times,serif" font-size="14.00">n = 14</text>
<polyline fill="none" stroke="black" points="291.5,-579.5 356.5,-579.5 "/>
<text text-anchor="middle" x="324" y="-561.3" font-family="Times,serif" font-size="14.00">n = 7</text>
<polyline fill="none" stroke="black" points="356.5,-550.5 356.5,-665.5 "/>
<text text-anchor="middle" x="389" y="-650.3" font-family="Times,serif" font-size="14.00">n = 58</text>
<polyline fill="none" stroke="black" points="356.5,-642.5 421.5,-642.5 "/>
<text text-anchor="middle" x="389" y="-627.3" font-family="Times,serif" font-size="14.00">n = 29</text>
<polyline fill="none" stroke="black" points="356.5,-619.5 421.5,-619.5 "/>
<text text-anchor="middle" x="389" y="-604.3" font-family="Times,serif" font-size="14.00">n = 14</text>
<polyline fill="none" stroke="black" points="356.5,-596.5 421.5,-596.5 "/>
<text text-anchor="middle" x="389" y="-581.3" font-family="Times,serif" font-size="14.00">n = 8</text>
<polyline fill="none" stroke="black" points="356.5,-573.5 421.5,-573.5 "/>
<text text-anchor="middle" x="389" y="-558.3" font-family="Times,serif" font-size="14.00">n = 4</text>
</g>
<!-- b&#45;&gt;e0 -->
<g id="edge4" class="edge">
<title>b&#45;&gt;e0:e00</title>
<path fill="none" stroke="black" d="M252.49,-736.47C225.26,-723.79 199.54,-704.73 194.42,-677.13"/>
<polygon fill="black" stroke="black" points="197.89,-676.64 193.5,-667 190.92,-677.28 197.89,-676.64"/>
</g>
<!-- b&#45;&gt;e0 -->
<g id="edge5" class="edge">
<title>b&#45;&gt;e0:e01</title>
<path fill="none" stroke="black" d="M296.51,-736.42C280.77,-721.68 263.47,-700.73 259.4,-677.22"/>
<polygon fill="black" stroke="black" points="262.86,-676.66 258.5,-667 255.89,-677.27 262.86,-676.66"/>
</g>
<!-- b&#45;&gt;e0 -->
<g id="edge6" class="edge">
<title>b&#45;&gt;e0:e02</title>
<path fill="none" stroke="black" d="M324.5,-736.31C324.5,-720.39 324.5,-698.13 324.5,-677.16"/>
<polygon fill="black" stroke="black" points="328,-677 324.5,-667 321,-677 328,-677"/>
</g>
<!-- b&#45;&gt;e0 -->
<g id="edge7" class="edge">
<title>b&#45;&gt;e0:e03</title>
<path fill="none" stroke="black" d="M352.07,-736.33C367.57,-721.55 384.6,-700.59 388.62,-677.17"/>
<polygon fill="black" stroke="black" points="392.12,-677.26 389.5,-667 385.15,-676.66 392.12,-677.26"/>
</g>
<!-- c -->
<g id="node5" class="node">
<title>c</title>
<polygon fill="lightgrey" stroke="black" points="0,-355 0,-393 137,-393 137,-355 0,-355"/>
<text text-anchor="middle" x="68.5" y="-377.8" font-family="Times,serif" font-size="14.00">encoding</text>
<text text-anchor="middle" x="68.5" y="-362.8" font-family="Times,serif" font-size="14.00">∈ {ℝ²,ℝ³,ℝ⁷,ℝ¹⁴}</text>
</g>
<!-- c&#45;&gt;sel -->
<g id="edge28" class="edge">
<title>c&#45;&gt;sel</title>
<path fill="none" stroke="black" d="M74.41,-354.75C85.15,-324.37 110.7,-263.38 152.5,-229 174.61,-210.82 203.6,-198.95 229.99,-191.28"/>
<polygon fill="black" stroke="black" points="231.24,-194.57 239.95,-188.55 229.38,-187.82 231.24,-194.57"/>
</g>
<!-- knn -->
<g id="node6" class="node">
<title>knn</title>
<polygon fill="lightgrey" stroke="black" points="108,-16.5 108,-62.5 233,-62.5 233,-16.5 108,-16.5"/>
<text text-anchor="middle" x="170.5" y="-47.3" font-family="Times,serif" font-size="14.00">knn graph</text>
<polyline fill="none" stroke="black" points="108,-39.5 233,-39.5 "/>
<text text-anchor="middle" x="170.5" y="-24.3" font-family="Times,serif" font-size="14.00">k ∈ {3,4,...,50}</text>
</g>
<!-- bot -->
<g id="node8" class="node">
<title>bot</title>
<polygon fill="none" stroke="black" points="166,-479.5 166,-502.5 399,-502.5 399,-479.5 166,-479.5"/>
<text text-anchor="middle" x="198.5" y="-487.3" font-family="Times,serif" font-size="14.00">n = 14</text>
<polyline fill="none" stroke="black" points="231,-479.5 231,-502.5 "/>
<text text-anchor="middle" x="259" y="-487.3" font-family="Times,serif" font-size="14.00">n = 7</text>
<polyline fill="none" stroke="black" points="287,-479.5 287,-502.5 "/>
<text text-anchor="middle" x="315" y="-487.3" font-family="Times,serif" font-size="14.00">n = 3</text>
<polyline fill="none" stroke="black" points="343,-479.5 343,-502.5 "/>
<text text-anchor="middle" x="371" y="-487.3" font-family="Times,serif" font-size="14.00">n = 2</text>
</g>
<!-- e0&#45;&gt;bot -->
<g id="edge8" class="edge">
<title>e0:e10&#45;&gt;bot:b0</title>
<path fill="none" stroke="black" d="M193.5,-549C193.5,-532.81 196.74,-526.57 198,-514.26"/>
<polygon fill="black" stroke="black" points="201.51,-514.16 198.5,-504 194.52,-513.82 201.51,-514.16"/>
</g>
<!-- e0&#45;&gt;bot -->
<g id="edge9" class="edge">
<title>e0:e21&#45;&gt;bot:b1</title>
<path fill="none" stroke="black" d="M258.5,-549C258.5,-532.91 258.5,-526.53 258.5,-514.23"/>
<polygon fill="black" stroke="black" points="262,-514 258.5,-504 255,-514 262,-514"/>
</g>
<!-- e0&#45;&gt;bot -->
<g id="edge10" class="edge">
<title>e0:e32&#45;&gt;bot:b2</title>
<path fill="none" stroke="black" d="M324.5,-549C324.5,-532.43 318.56,-526.54 316.33,-513.98"/>
<polygon fill="black" stroke="black" points="319.82,-513.68 315.5,-504 312.84,-514.26 319.82,-513.68"/>
</g>
<!-- e0&#45;&gt;bot -->
<g id="edge11" class="edge">
<title>e0:e53&#45;&gt;bot:b3</title>
<path fill="none" stroke="black" d="M389.5,-549C389.5,-531.33 377.39,-526.86 373.03,-513.94"/>
<polygon fill="black" stroke="black" points="376.49,-513.35 371.5,-504 369.57,-514.42 376.49,-513.35"/>
</g>
<!-- bot&#45;&gt;c -->
<g id="edge24" class="edge">
<title>bot:b0&#45;&gt;c</title>
<path fill="none" stroke="black" d="M164.5,-491C118.82,-491 90.77,-436.95 77.57,-402.64"/>
<polygon fill="black" stroke="black" points="80.81,-401.31 74.09,-393.12 74.24,-403.72 80.81,-401.31"/>
</g>
<!-- bot&#45;&gt;c -->
<g id="edge25" class="edge">
<title>bot:b1&#45;&gt;c</title>
<path fill="none" stroke="black" d="M258.5,-478C258.5,-455.31 177.8,-473.15 157.5,-463 128.8,-448.65 103.6,-421.58 87.41,-401.24"/>
<polygon fill="black" stroke="black" points="90.13,-399.03 81.24,-393.26 84.59,-403.31 90.13,-399.03"/>
</g>
<!-- bot&#45;&gt;c -->
<g id="edge26" class="edge">
<title>bot:b2&#45;&gt;c</title>
<path fill="none" stroke="black" d="M315.5,-478C315.5,-460.37 173.48,-470.47 157.5,-463 128.26,-449.33 102.99,-421.9 86.93,-401.28"/>
<polygon fill="black" stroke="black" points="89.64,-399.07 80.82,-393.2 84.06,-403.29 89.64,-399.07"/>
</g>
<!-- bot&#45;&gt;c -->
<g id="edge27" class="edge">
<title>bot:b3&#45;&gt;c</title>
<path fill="none" stroke="black" d="M371.5,-478C371.5,-454.16 179.22,-472.83 157.5,-463 128.09,-449.7 102.85,-422.21 86.84,-401.47"/>
<polygon fill="black" stroke="black" points="89.55,-399.25 80.76,-393.34 83.94,-403.44 89.55,-399.25"/>
</g>
<!-- e2 -->
<g id="node9" class="node">
<title>e2</title>
<polygon fill="none" stroke="black" points="166.5,-316.5 166.5,-431.5 426.5,-431.5 426.5,-316.5 166.5,-316.5"/>
<text text-anchor="middle" x="199" y="-399.3" font-family="Times,serif" font-size="14.00">n = 29</text>
<polyline fill="none" stroke="black" points="166.5,-374.5 231.5,-374.5 "/>
<text text-anchor="middle" x="199" y="-341.8" font-family="Times,serif" font-size="14.00">n = 58</text>
<polyline fill="none" stroke="black" points="231.5,-316.5 231.5,-431.5 "/>
<text text-anchor="middle" x="264" y="-408.8" font-family="Times,serif" font-size="14.00">n = 14</text>
<polyline fill="none" stroke="black" points="231.5,-393.5 296.5,-393.5 "/>
<text text-anchor="middle" x="264" y="-370.8" font-family="Times,serif" font-size="14.00">n = 29</text>
<polyline fill="none" stroke="black" points="231.5,-355.5 296.5,-355.5 "/>
<text text-anchor="middle" x="264" y="-332.3" font-family="Times,serif" font-size="14.00">n = 58</text>
<polyline fill="none" stroke="black" points="296.5,-316.5 296.5,-431.5 "/>
<text text-anchor="middle" x="329" y="-413.8" font-family="Times,serif" font-size="14.00">n = 7</text>
<polyline fill="none" stroke="black" points="296.5,-403.5 361.5,-403.5 "/>
<text text-anchor="middle" x="329" y="-385.3" font-family="Times,serif" font-size="14.00">n = 14</text>
<polyline fill="none" stroke="black" points="296.5,-374.5 361.5,-374.5 "/>
<text text-anchor="middle" x="329" y="-356.3" font-family="Times,serif" font-size="14.00">n = 29</text>
<polyline fill="none" stroke="black" points="296.5,-345.5 361.5,-345.5 "/>
<text text-anchor="middle" x="329" y="-327.3" font-family="Times,serif" font-size="14.00">n = 58</text>
<polyline fill="none" stroke="black" points="361.5,-316.5 361.5,-431.5 "/>
<text text-anchor="middle" x="394" y="-416.3" font-family="Times,serif" font-size="14.00">n = 4</text>
<polyline fill="none" stroke="black" points="361.5,-408.5 426.5,-408.5 "/>
<text text-anchor="middle" x="394" y="-393.3" font-family="Times,serif" font-size="14.00">n = 8</text>
<polyline fill="none" stroke="black" points="361.5,-385.5 426.5,-385.5 "/>
<text text-anchor="middle" x="394" y="-370.3" font-family="Times,serif" font-size="14.00">n = 14</text>
<polyline fill="none" stroke="black" points="361.5,-362.5 426.5,-362.5 "/>
<text text-anchor="middle" x="394" y="-347.3" font-family="Times,serif" font-size="14.00">n = 29</text>
<polyline fill="none" stroke="black" points="361.5,-339.5 426.5,-339.5 "/>
<text text-anchor="middle" x="394" y="-324.3" font-family="Times,serif" font-size="14.00">n = 58</text>
</g>
<!-- bot&#45;&gt;e2 -->
<g id="edge12" class="edge">
<title>bot:b0&#45;&gt;e2:e00</title>
<path fill="none" stroke="black" d="M198.5,-478C198.5,-461.91 198.5,-455.53 198.5,-443.23"/>
<polygon fill="black" stroke="black" points="202,-443 198.5,-433 195,-443 202,-443"/>
</g>
<!-- bot&#45;&gt;e2 -->
<g id="edge13" class="edge">
<title>bot:b1&#45;&gt;e2:e01</title>
<path fill="none" stroke="black" d="M258.5,-478C258.5,-461.81 261.74,-455.57 263,-443.26"/>
<polygon fill="black" stroke="black" points="266.51,-443.16 263.5,-433 259.52,-442.82 266.51,-443.16"/>
</g>
<!-- bot&#45;&gt;e2 -->
<g id="edge14" class="edge">
<title>bot:b2&#45;&gt;e2:e02</title>
<path fill="none" stroke="black" d="M315.5,-478C315.5,-460.98 324.74,-455.74 328.21,-443.14"/>
<polygon fill="black" stroke="black" points="331.71,-443.36 329.5,-433 324.76,-442.48 331.71,-443.36"/>
</g>
<!-- bot&#45;&gt;e2 -->
<g id="edge15" class="edge">
<title>bot:b3&#45;&gt;e2:e03</title>
<path fill="none" stroke="black" d="M371.5,-478C371.5,-459.58 386.98,-456.21 392.54,-443.2"/>
<polygon fill="black" stroke="black" points="396.05,-443.48 394.5,-433 389.17,-442.16 396.05,-443.48"/>
</g>
<!-- out -->
<g id="node10" class="node">
<title>out</title>
<polygon fill="none" stroke="black" points="161.5,-245.5 161.5,-268.5 457.5,-268.5 457.5,-245.5 161.5,-245.5"/>
<text text-anchor="middle" x="198.5" y="-253.3" font-family="Times,serif" font-size="14.00">n = 114</text>
<polyline fill="none" stroke="black" points="235.5,-245.5 235.5,-268.5 "/>
<text text-anchor="middle" x="272.5" y="-253.3" font-family="Times,serif" font-size="14.00">n = 114</text>
<polyline fill="none" stroke="black" points="309.5,-245.5 309.5,-268.5 "/>
<text text-anchor="middle" x="346.5" y="-253.3" font-family="Times,serif" font-size="14.00">n = 114</text>
<polyline fill="none" stroke="black" points="383.5,-245.5 383.5,-268.5 "/>
<text text-anchor="middle" x="420.5" y="-253.3" font-family="Times,serif" font-size="14.00">n = 114</text>
</g>
<!-- e2&#45;&gt;out -->
<g id="edge16" class="edge">
<title>e2:e10&#45;&gt;out:o0</title>
<path fill="none" stroke="black" d="M198.5,-315C198.5,-298.91 198.5,-292.53 198.5,-280.23"/>
<polygon fill="black" stroke="black" points="202,-280 198.5,-270 195,-280 202,-280"/>
</g>
<!-- e2&#45;&gt;out -->
<g id="edge17" class="edge">
<title>e2:e21&#45;&gt;out:o1</title>
<path fill="none" stroke="black" d="M263.5,-315C263.5,-298.43 269.44,-292.54 271.67,-279.98"/>
<polygon fill="black" stroke="black" points="275.16,-280.26 272.5,-270 268.18,-279.68 275.16,-280.26"/>
</g>
<!-- e2&#45;&gt;out -->
<g id="edge18" class="edge">
<title>e2:e32&#45;&gt;out:o2</title>
<path fill="none" stroke="black" d="M329.5,-315C329.5,-297.63 340.72,-292.89 344.93,-280.26"/>
<polygon fill="black" stroke="black" points="348.45,-280.41 346.5,-270 341.53,-279.36 348.45,-280.41"/>
</g>
<!-- e2&#45;&gt;out -->
<g id="edge19" class="edge">
<title>e2:e53&#45;&gt;out:o3</title>
<path fill="none" stroke="black" d="M394.5,-315C394.5,-295.87 412.33,-293.4 418.46,-280"/>
<polygon fill="black" stroke="black" points="421.93,-280.5 420.5,-270 415.07,-279.1 421.93,-280.5"/>
</g>
<!-- out&#45;&gt;mse -->
<g id="edge20" class="edge">
<title>out:o0&#45;&gt;mse</title>
<path fill="none" stroke="black" d="M198.5,-244C198.5,-228.81 237.85,-219.57 269.05,-214.63"/>
<polygon fill="black" stroke="black" points="269.87,-218.05 279.25,-213.12 268.84,-211.12 269.87,-218.05"/>
</g>
<!-- out&#45;&gt;mse -->
<g id="edge21" class="edge">
<title>out:o1&#45;&gt;mse</title>
<path fill="none" stroke="black" d="M272.5,-244C272.5,-237.8 275.36,-232.33 279.43,-227.69"/>
<polygon fill="black" stroke="black" points="282.08,-230.02 287.12,-220.7 277.37,-224.84 282.08,-230.02"/>
</g>
<!-- out&#45;&gt;mse -->
<g id="edge22" class="edge">
<title>out:o2&#45;&gt;mse</title>
<path fill="none" stroke="black" d="M346.5,-244C346.5,-237.42 343.32,-231.85 338.75,-227.24"/>
<polygon fill="black" stroke="black" points="340.68,-224.3 330.69,-220.78 336.31,-229.76 340.68,-224.3"/>
</g>
<!-- out&#45;&gt;mse -->
<g id="edge23" class="edge">
<title>out:o3&#45;&gt;mse</title>
<path fill="none" stroke="black" d="M420.5,-244C420.5,-227.62 376.75,-218.49 343.45,-213.91"/>
<polygon fill="black" stroke="black" points="343.88,-210.43 333.52,-212.63 342.99,-217.38 343.88,-210.43"/>
</g>
<!-- d&#45;&gt;knn -->
<g id="edge30" class="edge">
<title>d&#45;&gt;knn</title>
<path fill="none" stroke="black" d="M176.8,-83.2C176.31,-79.87 175.78,-76.31 175.25,-72.71"/>
<polygon fill="black" stroke="black" points="178.69,-72.05 173.77,-62.67 171.77,-73.07 178.69,-72.05"/>
</g>
</g>
</svg>
