<?xml version="1.0" encoding="UTF-8" standalone="no"?>
<!DOCTYPE svg PUBLIC "-//W3C//DTD SVG 1.1//EN"
 "http://www.w3.org/Graphics/SVG/1.1/DTD/svg11.dtd">
<!-- Generated by graphviz version 2.43.0 (0)
 -->
<!-- Title: cluster0 Pages: 1 -->
<svg width="608pt" height="1442pt"
 viewBox="0.00 0.00 608.21 1442.00" xmlns="http://www.w3.org/2000/svg" xmlns:xlink="http://www.w3.org/1999/xlink">
<g id="graph0" class="graph" transform="scale(1 1) rotate(0) translate(4 1438)">
<title>cluster0</title>
<polygon fill="white" stroke="transparent" points="-4,4 -4,-1438 604.21,-1438 604.21,4 -4,4"/>
<g id="clust4" class="cluster">
<title>clustera</title>
<polygon fill="lavender" stroke="lavender" points="251.21,-762 251.21,-1261 579.21,-1261 579.21,-762 251.21,-762"/>
<text text-anchor="middle" x="415.21" y="-1245.8" font-family="Times,serif" font-size="14.00">autoencoder</text>
</g>
<g id="clust5" class="cluster">
<title>cluster0</title>
<polygon fill="none" stroke="black" points="259.21,-1075 259.21,-1230 535.21,-1230 535.21,-1075 259.21,-1075"/>
<text text-anchor="middle" x="397.21" y="-1214.8" font-family="Times,serif" font-size="14.00">encoder</text>
</g>
<g id="clust6" class="cluster">
<title>cluster1</title>
<polygon fill="none" stroke="black" points="264.21,-1004 264.21,-1067 512.21,-1067 512.21,-1004 264.21,-1004"/>
<text text-anchor="middle" x="388.21" y="-1051.8" font-family="Times,serif" font-size="14.00">encoding layer</text>
</g>
<g id="clust7" class="cluster">
<title>cluster2</title>
<polygon fill="none" stroke="black" points="264.21,-841 264.21,-996 540.21,-996 540.21,-841 264.21,-841"/>
<text text-anchor="middle" x="402.21" y="-980.8" font-family="Times,serif" font-size="14.00">decoder</text>
</g>
<g id="clust8" class="cluster">
<title>cluster3</title>
<polygon fill="none" stroke="black" points="259.21,-770 259.21,-833 571.21,-833 571.21,-770 259.21,-770"/>
<text text-anchor="middle" x="415.21" y="-817.8" font-family="Times,serif" font-size="14.00">decoded output</text>
</g>
<g id="clust9" class="cluster">
<title>clusterortho</title>
<polygon fill="lightblue" stroke="lightblue" points="25.21,-1113.5 25.21,-1402 241.21,-1402 241.21,-1113.5 25.21,-1113.5"/>
<text text-anchor="middle" x="133.21" y="-1386.8" font-family="Times,serif" font-size="14.00">ortholog lookup</text>
</g>
<g id="clust10" class="cluster">
<title>cluster4</title>
<polygon fill="lightblue" stroke="lightblue" points="182.21,-363.5 182.21,-690 338.21,-690 338.21,-363.5 182.21,-363.5"/>
<text text-anchor="middle" x="260.21" y="-674.8" font-family="Times,serif" font-size="14.00">clustering</text>
</g>
<g id="clust11" class="cluster">
<title>clustersel</title>
<polygon fill="lightblue" stroke="lightblue" points="25.21,-94 25.21,-242 357.21,-242 357.21,-94 25.21,-94"/>
<text text-anchor="middle" x="191.21" y="-226.8" font-family="Times,serif" font-size="14.00">cluster selection</text>
</g>
<g id="clust12" class="cluster">
<title>cluster5</title>
<polygon fill="lightblue" stroke="lightblue" points="367.21,-152.5 367.21,-438 581.21,-438 581.21,-152.5 367.21,-152.5"/>
<text text-anchor="middle" x="474.21" y="-422.8" font-family="Times,serif" font-size="14.00">bootsrapping</text>
</g>
<g id="clust13" class="cluster">
<title>clustereval</title>
<polygon fill="lightblue" stroke="lightblue" points="332.21,-8 332.21,-86 478.21,-86 478.21,-8 332.21,-8"/>
<text text-anchor="middle" x="405.21" y="-70.8" font-family="Times,serif" font-size="14.00">cluster evaluation</text>
</g>
<!-- sel -->
<g id="node1" class="node">
<title>sel</title>
<polygon fill="yellow" stroke="black" points="366.21,-698.5 366.21,-721.5 494.21,-721.5 494.21,-698.5 366.21,-698.5"/>
<text text-anchor="middle" x="430.21" y="-706.3" font-family="Times,serif" font-size="14.00">model selection</text>
</g>
<!-- d -->
<g id="node23" class="node">
<title>d</title>
<polygon fill="none" stroke="black" points="215.71,-620.5 215.71,-658.5 304.71,-658.5 304.71,-620.5 215.71,-620.5"/>
<text text-anchor="middle" x="260.21" y="-643.3" font-family="Times,serif" font-size="14.00">euclidean </text>
<text text-anchor="middle" x="260.21" y="-628.3" font-family="Times,serif" font-size="14.00">distance</text>
</g>
<!-- sel&#45;&gt;d -->
<g id="edge31" class="edge">
<title>sel&#45;&gt;d</title>
<path fill="none" stroke="black" d="M404.02,-698.45C380.24,-688.86 344.41,-674.42 314.46,-662.36"/>
<polygon fill="black" stroke="black" points="315.55,-659.02 304.97,-658.53 312.93,-665.52 315.55,-659.02"/>
</g>
<!-- train -->
<g id="node26" class="node">
<title>train</title>
<polygon fill="none" stroke="black" points="380.21,-360.5 380.21,-406.5 480.21,-406.5 480.21,-360.5 380.21,-360.5"/>
<text text-anchor="middle" x="430.21" y="-391.3" font-family="Times,serif" font-size="14.00">training set</text>
<polyline fill="none" stroke="black" points="380.21,-383.5 480.21,-383.5 "/>
<text text-anchor="middle" x="430.21" y="-368.3" font-family="Times,serif" font-size="14.00">90% data</text>
</g>
<!-- sel&#45;&gt;train -->
<g id="edge37" class="edge">
<title>sel&#45;&gt;train</title>
<path fill="none" stroke="black" d="M430.21,-698.45C430.21,-677.62 430.21,-629.75 430.21,-589.5 430.21,-589.5 430.21,-589.5 430.21,-500.5 430.21,-472.21 430.21,-440.03 430.21,-416.76"/>
<polygon fill="black" stroke="black" points="433.71,-416.74 430.21,-406.74 426.71,-416.74 433.71,-416.74"/>
</g>
<!-- test -->
<g id="node27" class="node">
<title>test</title>
<polygon fill="none" stroke="black" points="489.21,-250.5 489.21,-296.5 573.21,-296.5 573.21,-250.5 489.21,-250.5"/>
<text text-anchor="middle" x="531.21" y="-281.3" font-family="Times,serif" font-size="14.00">test set</text>
<polyline fill="none" stroke="black" points="489.21,-273.5 573.21,-273.5 "/>
<text text-anchor="middle" x="531.21" y="-258.3" font-family="Times,serif" font-size="14.00">10% data</text>
</g>
<!-- sel&#45;&gt;test -->
<g id="edge38" class="edge">
<title>sel&#45;&gt;test</title>
<path fill="none" stroke="black" d="M443.61,-698.39C466.15,-679.24 509.21,-636.5 509.21,-589.5 509.21,-589.5 509.21,-589.5 509.21,-382.5 509.21,-356.52 515.4,-327.72 521.21,-306.39"/>
<polygon fill="black" stroke="black" points="524.64,-307.15 524.01,-296.57 517.91,-305.23 524.64,-307.15"/>
</g>
<!-- ksel -->
<g id="node2" class="node">
<title>ksel</title>
<polygon fill="yellow" stroke="black" points="213.71,-446.5 213.71,-469.5 306.71,-469.5 306.71,-446.5 213.71,-446.5"/>
<text text-anchor="middle" x="260.21" y="-454.3" font-family="Times,serif" font-size="14.00">k selection</text>
</g>
<!-- leiden -->
<g id="node25" class="node">
<title>leiden</title>
<polygon fill="none" stroke="black" points="193.21,-372 193.21,-395 327.21,-395 327.21,-372 193.21,-372"/>
<text text-anchor="middle" x="260.21" y="-379.8" font-family="Times,serif" font-size="14.00">leiden algorithm</text>
</g>
<!-- ksel&#45;&gt;leiden -->
<g id="edge34" class="edge">
<title>ksel&#45;&gt;leiden</title>
<path fill="none" stroke="black" d="M260.21,-446.3C260.21,-435.59 260.21,-418.83 260.21,-405.46"/>
<polygon fill="black" stroke="black" points="263.71,-405.24 260.21,-395.24 256.71,-405.24 263.71,-405.24"/>
</g>
<!-- ressel -->
<g id="node3" class="node">
<title>ressel</title>
<polygon fill="yellow" stroke="black" points="256.71,-102.5 256.71,-125.5 349.71,-125.5 349.71,-102.5 256.71,-102.5"/>
<text text-anchor="middle" x="303.21" y="-110.3" font-family="Times,serif" font-size="14.00">γ selection</text>
</g>
<!-- hyper -->
<g id="node9" class="node">
<title>hyper</title>
<polygon fill="lightpink" stroke="black" points="340.21,-16.5 340.21,-54.5 470.21,-54.5 470.21,-16.5 340.21,-16.5"/>
<text text-anchor="middle" x="405.21" y="-39.3" font-family="Times,serif" font-size="14.00">hypergeometric</text>
<text text-anchor="middle" x="405.21" y="-24.3" font-family="Times,serif" font-size="14.00">test</text>
</g>
<!-- ressel&#45;&gt;hyper -->
<g id="edge57" class="edge">
<title>ressel&#45;&gt;hyper</title>
<path fill="none" stroke="black" d="M317.4,-102.36C331.64,-91.68 354.08,-74.85 372.71,-60.88"/>
<polygon fill="black" stroke="black" points="375.06,-63.49 380.96,-54.69 370.86,-57.89 375.06,-63.49"/>
</g>
<!-- mse -->
<g id="node4" class="node">
<title>mse</title>
<polygon fill="lightpink" stroke="black" points="414.21,-730.5 414.21,-753.5 468.21,-753.5 468.21,-730.5 414.21,-730.5"/>
<text text-anchor="middle" x="441.21" y="-738.3" font-family="Times,serif" font-size="14.00">MSE</text>
</g>
<!-- mse&#45;&gt;sel -->
<g id="edge5" class="edge">
<title>mse&#45;&gt;sel</title>
<path fill="none" stroke="black" d="M437.24,-730.17C437.21,-730.08 437.18,-729.99 437.14,-729.9"/>
<polygon fill="black" stroke="black" points="440.8,-729.7 434.07,-721.51 434.22,-732.11 440.8,-729.7"/>
</g>
<!-- cv -->
<g id="node5" class="node">
<title>cv</title>
<polygon fill="lightpink" stroke="black" points="375.71,-161 375.71,-184 500.71,-184 500.71,-161 375.71,-161"/>
<text text-anchor="middle" x="438.21" y="-168.8" font-family="Times,serif" font-size="14.00">crossvalidation</text>
</g>
<!-- cv&#45;&gt;ressel -->
<g id="edge43" class="edge">
<title>cv&#45;&gt;ressel</title>
<path fill="none" stroke="black" d="M417.09,-160.85C401.12,-152.98 378.54,-142.25 358.21,-134 354.05,-132.31 349.67,-130.63 345.27,-129.01"/>
<polygon fill="black" stroke="black" points="346.3,-125.67 335.71,-125.59 343.94,-132.26 346.3,-125.67"/>
</g>
<!-- sil -->
<g id="node6" class="node">
<title>sil</title>
<polygon fill="lightpink" stroke="black" points="33.21,-153.5 33.21,-191.5 125.21,-191.5 125.21,-153.5 33.21,-153.5"/>
<text text-anchor="middle" x="79.21" y="-176.3" font-family="Times,serif" font-size="14.00">silhouette </text>
<text text-anchor="middle" x="79.21" y="-161.3" font-family="Times,serif" font-size="14.00">width</text>
</g>
<!-- sil&#45;&gt;ressel -->
<g id="edge45" class="edge">
<title>sil&#45;&gt;ressel</title>
<path fill="none" stroke="black" d="M98.15,-153.49C106.93,-146.2 117.91,-138.46 129.21,-134 149.91,-125.83 203.85,-120.79 246.24,-117.97"/>
<polygon fill="black" stroke="black" points="246.71,-121.45 256.47,-117.32 246.26,-114.46 246.71,-121.45"/>
</g>
<!-- gsea0 -->
<g id="node7" class="node">
<title>gsea0</title>
<polygon fill="lightpink" stroke="black" points="190.21,-478.5 190.21,-524.5 324.21,-524.5 324.21,-478.5 190.21,-478.5"/>
<text text-anchor="middle" x="257.21" y="-509.3" font-family="Times,serif" font-size="14.00">GSEA</text>
<polyline fill="none" stroke="black" points="190.21,-501.5 324.21,-501.5 "/>
<text text-anchor="middle" x="257.21" y="-486.3" font-family="Times,serif" font-size="14.00">sorted by length</text>
</g>
<!-- gsea0&#45;&gt;ksel -->
<g id="edge54" class="edge">
<title>gsea0&#45;&gt;ksel</title>
<path fill="none" stroke="black" d="M258.82,-478.29C258.83,-478.2 258.83,-478.11 258.84,-478.02"/>
<polygon fill="black" stroke="black" points="262.2,-480.08 259.43,-469.86 255.22,-479.58 262.2,-480.08"/>
</g>
<!-- gsea1 -->
<g id="node8" class="node">
<title>gsea1</title>
<polygon fill="lightpink" stroke="black" points="129.21,-134.5 129.21,-210.5 349.21,-210.5 349.21,-134.5 129.21,-134.5"/>
<text text-anchor="middle" x="239.21" y="-195.3" font-family="Times,serif" font-size="14.00">GSEA</text>
<polyline fill="none" stroke="black" points="129.21,-187.5 349.21,-187.5 "/>
<text text-anchor="middle" x="239.21" y="-172.3" font-family="Times,serif" font-size="14.00">sorted by e₁ / e₂</text>
<text text-anchor="middle" x="239.21" y="-157.3" font-family="Times,serif" font-size="14.00">e₁ = edges within cluster</text>
<text text-anchor="middle" x="239.21" y="-142.3" font-family="Times,serif" font-size="14.00">e₂ = edges between clusters</text>
</g>
<!-- gsea1&#45;&gt;ressel -->
<g id="edge56" class="edge">
<title>gsea1&#45;&gt;ressel</title>
<path fill="none" stroke="black" d="M281.19,-134.44C281.97,-133.75 282.75,-133.07 283.51,-132.39"/>
<polygon fill="black" stroke="black" points="285.99,-134.87 291.17,-125.63 281.36,-129.63 285.99,-134.87"/>
</g>
<!-- pheno -->
<g id="node10" class="node">
<title>pheno</title>
<polygon fill="lightgrey" stroke="black" points="361.71,-1410.5 361.71,-1433.5 498.71,-1433.5 498.71,-1410.5 361.71,-1410.5"/>
<text text-anchor="middle" x="430.21" y="-1418.3" font-family="Times,serif" font-size="14.00">26 perturbations</text>
</g>
<!-- pheno&#45;&gt;hyper -->
<g id="edge1" class="edge">
<title>pheno&#45;&gt;hyper</title>
<path fill="none" stroke="black" d="M495.79,-1410.44C501.91,-1408.15 507.83,-1405.38 513.21,-1402 565.58,-1369.17 600.21,-1355.31 600.21,-1293.5 600.21,-1293.5 600.21,-1293.5 600.21,-171.5 600.21,-110.61 535.15,-75.02 480.19,-55.82"/>
<polygon fill="black" stroke="black" points="481.01,-52.4 470.42,-52.54 478.78,-59.04 481.01,-52.4"/>
</g>
<!-- a -->
<g id="node11" class="node">
<title>a</title>
<polygon fill="lightgrey" stroke="black" points="349.71,-1324.5 349.71,-1370.5 510.71,-1370.5 510.71,-1324.5 349.71,-1324.5"/>
<text text-anchor="middle" x="430.21" y="-1355.3" font-family="Times,serif" font-size="14.00">segmentation</text>
<polyline fill="none" stroke="black" points="349.71,-1347.5 510.71,-1347.5 "/>
<text text-anchor="middle" x="430.21" y="-1332.3" font-family="Times,serif" font-size="14.00">1703 embryo halves</text>
</g>
<!-- pheno&#45;&gt;a -->
<g id="edge2" class="edge">
<title>pheno&#45;&gt;a</title>
<path fill="none" stroke="black" d="M430.21,-1410.3C430.21,-1402.5 430.21,-1391.49 430.21,-1380.92"/>
<polygon fill="black" stroke="black" points="433.71,-1380.63 430.21,-1370.63 426.71,-1380.63 433.71,-1380.63"/>
</g>
<!-- ortho -->
<g id="node20" class="node">
<title>ortho</title>
<polygon fill="none" stroke="black" points="33.71,-1324.5 33.71,-1370.5 232.71,-1370.5 232.71,-1324.5 33.71,-1324.5"/>
<text text-anchor="middle" x="133.21" y="-1355.3" font-family="Times,serif" font-size="14.00">ENSEMBL orthologs</text>
<polyline fill="none" stroke="black" points="33.71,-1347.5 232.71,-1347.5 "/>
<text text-anchor="middle" x="87.21" y="-1332.3" font-family="Times,serif" font-size="14.00">M. musculus</text>
<polyline fill="none" stroke="black" points="140.71,-1324.5 140.71,-1347.5 "/>
<text text-anchor="middle" x="186.71" y="-1332.3" font-family="Times,serif" font-size="14.00">H. sapiens</text>
</g>
<!-- pheno&#45;&gt;ortho -->
<g id="edge47" class="edge">
<title>pheno&#45;&gt;ortho:ens</title>
<path fill="none" stroke="black" d="M380.07,-1410.47C369.49,-1407.94 358.43,-1405.07 348.21,-1402 299.87,-1387.45 289.56,-1363.03 244.4,-1359.84"/>
<polygon fill="black" stroke="black" points="244.33,-1356.34 234.21,-1359.5 244.09,-1363.34 244.33,-1356.34"/>
</g>
<!-- b -->
<g id="node12" class="node">
<title>b</title>
<polygon fill="lightgrey" stroke="black" points="337.71,-1269.5 337.71,-1315.5 522.71,-1315.5 522.71,-1269.5 337.71,-1269.5"/>
<text text-anchor="middle" x="430.21" y="-1300.3" font-family="Times,serif" font-size="14.00">preprocessing</text>
<polyline fill="none" stroke="black" points="337.71,-1292.5 522.71,-1292.5 "/>
<text text-anchor="middle" x="430.21" y="-1277.3" font-family="Times,serif" font-size="14.00">114 summary statistics</text>
</g>
<!-- a&#45;&gt;b -->
<g id="edge3" class="edge">
<title>a&#45;&gt;b</title>
<path fill="none" stroke="black" d="M430.21,-1324.33C430.21,-1324.24 430.21,-1324.15 430.21,-1324.06"/>
<polygon fill="black" stroke="black" points="433.71,-1325.75 430.21,-1315.75 426.71,-1325.75 433.71,-1325.75"/>
</g>
<!-- b&#45;&gt;mse -->
<g id="edge4" class="edge">
<title>b&#45;&gt;mse</title>
<path fill="none" stroke="black" d="M522.96,-1271.91C527.79,-1268.79 532.26,-1265.17 536.21,-1261 610.17,-1182.84 590.21,-1132.6 590.21,-1025 590.21,-1025 590.21,-1025 590.21,-906 590.21,-873.75 594.79,-785.03 572.21,-762 559.49,-749.03 512.5,-744.83 478.43,-743.52"/>
<polygon fill="black" stroke="black" points="478.43,-740.02 468.32,-743.2 478.21,-747.01 478.43,-740.02"/>
</g>
<!-- e0 -->
<g id="node16" class="node">
<title>e0</title>
<polygon fill="none" stroke="black" points="267.21,-1083.5 267.21,-1198.5 527.21,-1198.5 527.21,-1083.5 267.21,-1083.5"/>
<text text-anchor="middle" x="299.71" y="-1166.3" font-family="Times,serif" font-size="14.00">n = 58</text>
<polyline fill="none" stroke="black" points="267.21,-1141.5 332.21,-1141.5 "/>
<text text-anchor="middle" x="299.71" y="-1108.8" font-family="Times,serif" font-size="14.00">n = 29</text>
<polyline fill="none" stroke="black" points="332.21,-1083.5 332.21,-1198.5 "/>
<text text-anchor="middle" x="364.71" y="-1175.8" font-family="Times,serif" font-size="14.00">n = 58</text>
<polyline fill="none" stroke="black" points="332.21,-1160.5 397.21,-1160.5 "/>
<text text-anchor="middle" x="364.71" y="-1137.8" font-family="Times,serif" font-size="14.00">n = 29</text>
<polyline fill="none" stroke="black" points="332.21,-1122.5 397.21,-1122.5 "/>
<text text-anchor="middle" x="364.71" y="-1099.3" font-family="Times,serif" font-size="14.00">n = 14</text>
<polyline fill="none" stroke="black" points="397.21,-1083.5 397.21,-1198.5 "/>
<text text-anchor="middle" x="429.71" y="-1180.8" font-family="Times,serif" font-size="14.00">n = 58</text>
<polyline fill="none" stroke="black" points="397.21,-1170.5 462.21,-1170.5 "/>
<text text-anchor="middle" x="429.71" y="-1152.3" font-family="Times,serif" font-size="14.00">n = 29</text>
<polyline fill="none" stroke="black" points="397.21,-1141.5 462.21,-1141.5 "/>
<text text-anchor="middle" x="429.71" y="-1123.3" font-family="Times,serif" font-size="14.00">n = 14</text>
<polyline fill="none" stroke="black" points="397.21,-1112.5 462.21,-1112.5 "/>
<text text-anchor="middle" x="429.71" y="-1094.3" font-family="Times,serif" font-size="14.00">n = 7</text>
<polyline fill="none" stroke="black" points="462.21,-1083.5 462.21,-1198.5 "/>
<text text-anchor="middle" x="494.71" y="-1183.3" font-family="Times,serif" font-size="14.00">n = 58</text>
<polyline fill="none" stroke="black" points="462.21,-1175.5 527.21,-1175.5 "/>
<text text-anchor="middle" x="494.71" y="-1160.3" font-family="Times,serif" font-size="14.00">n = 29</text>
<polyline fill="none" stroke="black" points="462.21,-1152.5 527.21,-1152.5 "/>
<text text-anchor="middle" x="494.71" y="-1137.3" font-family="Times,serif" font-size="14.00">n = 14</text>
<polyline fill="none" stroke="black" points="462.21,-1129.5 527.21,-1129.5 "/>
<text text-anchor="middle" x="494.71" y="-1114.3" font-family="Times,serif" font-size="14.00">n = 8</text>
<polyline fill="none" stroke="black" points="462.21,-1106.5 527.21,-1106.5 "/>
<text text-anchor="middle" x="494.71" y="-1091.3" font-family="Times,serif" font-size="14.00">n = 4</text>
</g>
<!-- b&#45;&gt;e0 -->
<g id="edge6" class="edge">
<title>b&#45;&gt;e0:e00</title>
<path fill="none" stroke="black" d="M358.2,-1269.47C330.97,-1256.79 305.26,-1237.73 300.13,-1210.13"/>
<polygon fill="black" stroke="black" points="303.6,-1209.64 299.21,-1200 296.63,-1210.28 303.6,-1209.64"/>
</g>
<!-- b&#45;&gt;e0 -->
<g id="edge7" class="edge">
<title>b&#45;&gt;e0:e01</title>
<path fill="none" stroke="black" d="M402.22,-1269.42C386.48,-1254.68 369.19,-1233.73 365.11,-1210.22"/>
<polygon fill="black" stroke="black" points="368.57,-1209.66 364.21,-1200 361.6,-1210.27 368.57,-1209.66"/>
</g>
<!-- b&#45;&gt;e0 -->
<g id="edge8" class="edge">
<title>b&#45;&gt;e0:e02</title>
<path fill="none" stroke="black" d="M430.21,-1269.31C430.21,-1253.39 430.21,-1231.13 430.21,-1210.16"/>
<polygon fill="black" stroke="black" points="433.71,-1210 430.21,-1200 426.71,-1210 433.71,-1210"/>
</g>
<!-- b&#45;&gt;e0 -->
<g id="edge9" class="edge">
<title>b&#45;&gt;e0:e03</title>
<path fill="none" stroke="black" d="M457.78,-1269.33C473.28,-1254.55 490.31,-1233.59 494.33,-1210.17"/>
<polygon fill="black" stroke="black" points="497.84,-1210.26 495.21,-1200 490.86,-1209.66 497.84,-1210.26"/>
</g>
<!-- c -->
<g id="node13" class="node">
<title>c</title>
<polygon fill="lightgrey" stroke="black" points="105.71,-888 105.71,-926 242.71,-926 242.71,-888 105.71,-888"/>
<text text-anchor="middle" x="174.21" y="-910.8" font-family="Times,serif" font-size="14.00">encoding</text>
<text text-anchor="middle" x="174.21" y="-895.8" font-family="Times,serif" font-size="14.00">∈ {ℝ²,ℝ³,ℝ⁷,ℝ¹⁴}</text>
</g>
<!-- c&#45;&gt;sel -->
<g id="edge30" class="edge">
<title>c&#45;&gt;sel</title>
<path fill="none" stroke="black" d="M179.95,-887.54C190.44,-856.85 215.64,-795.42 258.21,-762 286.19,-740.04 323.43,-727.52 356.1,-720.4"/>
<polygon fill="black" stroke="black" points="356.99,-723.79 366.08,-718.35 355.58,-716.93 356.99,-723.79"/>
</g>
<!-- knn -->
<g id="node14" class="node">
<title>knn</title>
<polygon fill="lightgrey" stroke="black" points="197.71,-565.5 197.71,-611.5 322.71,-611.5 322.71,-565.5 197.71,-565.5"/>
<text text-anchor="middle" x="260.21" y="-596.3" font-family="Times,serif" font-size="14.00">knn graph</text>
<polyline fill="none" stroke="black" points="197.71,-588.5 322.71,-588.5 "/>
<text text-anchor="middle" x="260.21" y="-573.3" font-family="Times,serif" font-size="14.00">k ∈ {3,4,...,50}</text>
</g>
<!-- knn&#45;&gt;ksel -->
<g id="edge33" class="edge">
<title>knn&#45;&gt;ksel</title>
<path fill="none" stroke="black" d="M300.31,-565.4C303.53,-562.8 306.55,-560 309.21,-557 332.94,-530.28 345.59,-506.64 324.21,-478 321.79,-474.75 318.83,-472.03 315.53,-469.76"/>
<polygon fill="black" stroke="black" points="317.19,-466.68 306.73,-465 313.85,-472.84 317.19,-466.68"/>
</g>
<!-- gene -->
<g id="node24" class="node">
<title>gene</title>
<polygon fill="none" stroke="black" points="193.21,-533.5 193.21,-556.5 307.21,-556.5 307.21,-533.5 193.21,-533.5"/>
<text text-anchor="middle" x="250.21" y="-541.3" font-family="Times,serif" font-size="14.00">gene network</text>
</g>
<!-- knn&#45;&gt;gene -->
<g id="edge59" class="edge">
<title>knn&#45;&gt;gene</title>
<path fill="none" stroke="black" d="M254.86,-565.29C254.84,-565.2 254.82,-565.11 254.8,-565.02"/>
<polygon fill="black" stroke="black" points="258.57,-565.76 252.83,-556.86 251.77,-567.4 258.57,-565.76"/>
</g>
<!-- clust -->
<g id="node15" class="node">
<title>clust</title>
<polygon fill="lightgrey" stroke="black" points="223.21,-305.5 223.21,-351.5 297.21,-351.5 297.21,-305.5 223.21,-305.5"/>
<text text-anchor="middle" x="260.21" y="-336.3" font-family="Times,serif" font-size="14.00">clusters</text>
<polyline fill="none" stroke="black" points="223.21,-328.5 297.21,-328.5 "/>
<text text-anchor="middle" x="260.21" y="-313.3" font-family="Times,serif" font-size="14.00">γ∈ℝ&gt; 0</text>
</g>
<!-- clust&#45;&gt;ressel -->
<g id="edge58" class="edge">
<title>clust&#45;&gt;ressel</title>
<path fill="none" stroke="black" d="M294.37,-305.41C314.46,-290.27 338.04,-268.22 349.21,-242 358.62,-219.92 362.56,-153.95 349.21,-134 348.94,-133.59 348.65,-133.18 348.35,-132.79"/>
<polygon fill="black" stroke="black" points="350.51,-130.01 340.83,-125.71 345.72,-135.11 350.51,-130.01"/>
</g>
<!-- clust&#45;&gt;sil -->
<g id="edge46" class="edge">
<title>clust&#45;&gt;sil</title>
<path fill="none" stroke="black" d="M235.49,-305.47C215.16,-288.33 184.95,-265 155.21,-250 144.42,-244.56 139.06,-249.02 129.21,-242 114.27,-231.34 102.02,-214.82 93.38,-200.67"/>
<polygon fill="black" stroke="black" points="96.29,-198.69 88.24,-191.8 90.23,-202.2 96.29,-198.69"/>
</g>
<!-- clust&#45;&gt;gsea1 -->
<g id="edge55" class="edge">
<title>clust&#45;&gt;gsea1</title>
<path fill="none" stroke="black" d="M257.2,-305.44C254.2,-283.44 249.5,-248.95 245.66,-220.76"/>
<polygon fill="black" stroke="black" points="249.1,-220.12 244.28,-210.69 242.17,-221.07 249.1,-220.12"/>
</g>
<!-- classifier -->
<g id="node29" class="node">
<title>classifier</title>
<polygon fill="none" stroke="black" points="375.21,-254.5 375.21,-292.5 485.21,-292.5 485.21,-254.5 375.21,-254.5"/>
<text text-anchor="middle" x="430.21" y="-277.3" font-family="Times,serif" font-size="14.00">reduced knn </text>
<text text-anchor="middle" x="430.21" y="-262.3" font-family="Times,serif" font-size="14.00">classifier</text>
</g>
<!-- clust&#45;&gt;classifier -->
<g id="edge36" class="edge">
<title>clust&#45;&gt;classifier</title>
<path fill="none" stroke="black" d="M297.3,-316.33C316.16,-310.62 339.43,-303.51 360.21,-297 361.89,-296.48 363.59,-295.94 365.3,-295.4"/>
<polygon fill="black" stroke="black" points="366.74,-298.62 375.21,-292.26 364.62,-291.95 366.74,-298.62"/>
</g>
<!-- bot -->
<g id="node17" class="node">
<title>bot</title>
<polygon fill="none" stroke="black" points="271.71,-1012.5 271.71,-1035.5 504.71,-1035.5 504.71,-1012.5 271.71,-1012.5"/>
<text text-anchor="middle" x="304.21" y="-1020.3" font-family="Times,serif" font-size="14.00">n = 14</text>
<polyline fill="none" stroke="black" points="336.71,-1012.5 336.71,-1035.5 "/>
<text text-anchor="middle" x="364.71" y="-1020.3" font-family="Times,serif" font-size="14.00">n = 7</text>
<polyline fill="none" stroke="black" points="392.71,-1012.5 392.71,-1035.5 "/>
<text text-anchor="middle" x="420.71" y="-1020.3" font-family="Times,serif" font-size="14.00">n = 3</text>
<polyline fill="none" stroke="black" points="448.71,-1012.5 448.71,-1035.5 "/>
<text text-anchor="middle" x="476.71" y="-1020.3" font-family="Times,serif" font-size="14.00">n = 2</text>
</g>
<!-- e0&#45;&gt;bot -->
<g id="edge10" class="edge">
<title>e0:e10&#45;&gt;bot:b0</title>
<path fill="none" stroke="black" d="M299.21,-1082C299.21,-1065.81 302.45,-1059.57 303.72,-1047.26"/>
<polygon fill="black" stroke="black" points="307.22,-1047.16 304.21,-1037 300.23,-1046.82 307.22,-1047.16"/>
</g>
<!-- e0&#45;&gt;bot -->
<g id="edge11" class="edge">
<title>e0:e21&#45;&gt;bot:b1</title>
<path fill="none" stroke="black" d="M364.21,-1082C364.21,-1065.91 364.21,-1059.53 364.21,-1047.23"/>
<polygon fill="black" stroke="black" points="367.71,-1047 364.21,-1037 360.71,-1047 367.71,-1047"/>
</g>
<!-- e0&#45;&gt;bot -->
<g id="edge12" class="edge">
<title>e0:e32&#45;&gt;bot:b2</title>
<path fill="none" stroke="black" d="M430.21,-1082C430.21,-1065.43 424.27,-1059.54 422.04,-1046.98"/>
<polygon fill="black" stroke="black" points="425.53,-1046.68 421.21,-1037 418.55,-1047.26 425.53,-1046.68"/>
</g>
<!-- e0&#45;&gt;bot -->
<g id="edge13" class="edge">
<title>e0:e53&#45;&gt;bot:b3</title>
<path fill="none" stroke="black" d="M495.21,-1082C495.21,-1064.33 483.1,-1059.86 478.75,-1046.94"/>
<polygon fill="black" stroke="black" points="482.2,-1046.35 477.21,-1037 475.28,-1047.42 482.2,-1046.35"/>
</g>
<!-- bot&#45;&gt;c -->
<g id="edge26" class="edge">
<title>bot:b0&#45;&gt;c</title>
<path fill="none" stroke="black" d="M270.21,-1024C224.53,-1024 196.48,-969.95 183.28,-935.64"/>
<polygon fill="black" stroke="black" points="186.52,-934.31 179.8,-926.12 179.95,-936.72 186.52,-934.31"/>
</g>
<!-- bot&#45;&gt;c -->
<g id="edge27" class="edge">
<title>bot:b1&#45;&gt;c</title>
<path fill="none" stroke="black" d="M364.21,-1011C364.21,-988.31 283.51,-1006.15 263.21,-996 234.52,-981.65 209.31,-954.58 193.12,-934.24"/>
<polygon fill="black" stroke="black" points="195.84,-932.03 186.96,-926.26 190.3,-936.31 195.84,-932.03"/>
</g>
<!-- bot&#45;&gt;c -->
<g id="edge28" class="edge">
<title>bot:b2&#45;&gt;c</title>
<path fill="none" stroke="black" d="M421.21,-1011C421.21,-993.37 279.19,-1003.47 263.21,-996 233.97,-982.33 208.7,-954.9 192.64,-934.28"/>
<polygon fill="black" stroke="black" points="195.36,-932.07 186.54,-926.2 189.77,-936.29 195.36,-932.07"/>
</g>
<!-- bot&#45;&gt;c -->
<g id="edge29" class="edge">
<title>bot:b3&#45;&gt;c</title>
<path fill="none" stroke="black" d="M477.21,-1011C477.21,-987.16 284.93,-1005.83 263.21,-996 233.81,-982.7 208.56,-955.21 192.55,-934.47"/>
<polygon fill="black" stroke="black" points="195.26,-932.25 186.47,-926.34 189.66,-936.44 195.26,-932.25"/>
</g>
<!-- e2 -->
<g id="node18" class="node">
<title>e2</title>
<polygon fill="none" stroke="black" points="272.21,-849.5 272.21,-964.5 532.21,-964.5 532.21,-849.5 272.21,-849.5"/>
<text text-anchor="middle" x="304.71" y="-932.3" font-family="Times,serif" font-size="14.00">n = 29</text>
<polyline fill="none" stroke="black" points="272.21,-907.5 337.21,-907.5 "/>
<text text-anchor="middle" x="304.71" y="-874.8" font-family="Times,serif" font-size="14.00">n = 58</text>
<polyline fill="none" stroke="black" points="337.21,-849.5 337.21,-964.5 "/>
<text text-anchor="middle" x="369.71" y="-941.8" font-family="Times,serif" font-size="14.00">n = 14</text>
<polyline fill="none" stroke="black" points="337.21,-926.5 402.21,-926.5 "/>
<text text-anchor="middle" x="369.71" y="-903.8" font-family="Times,serif" font-size="14.00">n = 29</text>
<polyline fill="none" stroke="black" points="337.21,-888.5 402.21,-888.5 "/>
<text text-anchor="middle" x="369.71" y="-865.3" font-family="Times,serif" font-size="14.00">n = 58</text>
<polyline fill="none" stroke="black" points="402.21,-849.5 402.21,-964.5 "/>
<text text-anchor="middle" x="434.71" y="-946.8" font-family="Times,serif" font-size="14.00">n = 7</text>
<polyline fill="none" stroke="black" points="402.21,-936.5 467.21,-936.5 "/>
<text text-anchor="middle" x="434.71" y="-918.3" font-family="Times,serif" font-size="14.00">n = 14</text>
<polyline fill="none" stroke="black" points="402.21,-907.5 467.21,-907.5 "/>
<text text-anchor="middle" x="434.71" y="-889.3" font-family="Times,serif" font-size="14.00">n = 29</text>
<polyline fill="none" stroke="black" points="402.21,-878.5 467.21,-878.5 "/>
<text text-anchor="middle" x="434.71" y="-860.3" font-family="Times,serif" font-size="14.00">n = 58</text>
<polyline fill="none" stroke="black" points="467.21,-849.5 467.21,-964.5 "/>
<text text-anchor="middle" x="499.71" y="-949.3" font-family="Times,serif" font-size="14.00">n = 4</text>
<polyline fill="none" stroke="black" points="467.21,-941.5 532.21,-941.5 "/>
<text text-anchor="middle" x="499.71" y="-926.3" font-family="Times,serif" font-size="14.00">n = 8</text>
<polyline fill="none" stroke="black" points="467.21,-918.5 532.21,-918.5 "/>
<text text-anchor="middle" x="499.71" y="-903.3" font-family="Times,serif" font-size="14.00">n = 14</text>
<polyline fill="none" stroke="black" points="467.21,-895.5 532.21,-895.5 "/>
<text text-anchor="middle" x="499.71" y="-880.3" font-family="Times,serif" font-size="14.00">n = 29</text>
<polyline fill="none" stroke="black" points="467.21,-872.5 532.21,-872.5 "/>
<text text-anchor="middle" x="499.71" y="-857.3" font-family="Times,serif" font-size="14.00">n = 58</text>
</g>
<!-- bot&#45;&gt;e2 -->
<g id="edge14" class="edge">
<title>bot:b0&#45;&gt;e2:e00</title>
<path fill="none" stroke="black" d="M304.21,-1011C304.21,-994.91 304.21,-988.53 304.21,-976.23"/>
<polygon fill="black" stroke="black" points="307.71,-976 304.21,-966 300.71,-976 307.71,-976"/>
</g>
<!-- bot&#45;&gt;e2 -->
<g id="edge15" class="edge">
<title>bot:b1&#45;&gt;e2:e01</title>
<path fill="none" stroke="black" d="M364.21,-1011C364.21,-994.81 367.45,-988.57 368.72,-976.26"/>
<polygon fill="black" stroke="black" points="372.22,-976.16 369.21,-966 365.23,-975.82 372.22,-976.16"/>
</g>
<!-- bot&#45;&gt;e2 -->
<g id="edge16" class="edge">
<title>bot:b2&#45;&gt;e2:e02</title>
<path fill="none" stroke="black" d="M421.21,-1011C421.21,-993.98 430.46,-988.74 433.92,-976.14"/>
<polygon fill="black" stroke="black" points="437.42,-976.36 435.21,-966 430.48,-975.48 437.42,-976.36"/>
</g>
<!-- bot&#45;&gt;e2 -->
<g id="edge17" class="edge">
<title>bot:b3&#45;&gt;e2:e03</title>
<path fill="none" stroke="black" d="M477.21,-1011C477.21,-992.58 492.69,-989.21 498.25,-976.2"/>
<polygon fill="black" stroke="black" points="501.76,-976.48 500.21,-966 494.89,-975.16 501.76,-976.48"/>
</g>
<!-- out -->
<g id="node19" class="node">
<title>out</title>
<polygon fill="none" stroke="black" points="267.21,-778.5 267.21,-801.5 563.21,-801.5 563.21,-778.5 267.21,-778.5"/>
<text text-anchor="middle" x="304.21" y="-786.3" font-family="Times,serif" font-size="14.00">n = 114</text>
<polyline fill="none" stroke="black" points="341.21,-778.5 341.21,-801.5 "/>
<text text-anchor="middle" x="378.21" y="-786.3" font-family="Times,serif" font-size="14.00">n = 114</text>
<polyline fill="none" stroke="black" points="415.21,-778.5 415.21,-801.5 "/>
<text text-anchor="middle" x="452.21" y="-786.3" font-family="Times,serif" font-size="14.00">n = 114</text>
<polyline fill="none" stroke="black" points="489.21,-778.5 489.21,-801.5 "/>
<text text-anchor="middle" x="526.21" y="-786.3" font-family="Times,serif" font-size="14.00">n = 114</text>
</g>
<!-- e2&#45;&gt;out -->
<g id="edge18" class="edge">
<title>e2:e10&#45;&gt;out:o0</title>
<path fill="none" stroke="black" d="M304.21,-848C304.21,-831.91 304.21,-825.53 304.21,-813.23"/>
<polygon fill="black" stroke="black" points="307.71,-813 304.21,-803 300.71,-813 307.71,-813"/>
</g>
<!-- e2&#45;&gt;out -->
<g id="edge19" class="edge">
<title>e2:e21&#45;&gt;out:o1</title>
<path fill="none" stroke="black" d="M369.21,-848C369.21,-831.43 375.15,-825.54 377.38,-812.98"/>
<polygon fill="black" stroke="black" points="380.87,-813.26 378.21,-803 373.9,-812.68 380.87,-813.26"/>
</g>
<!-- e2&#45;&gt;out -->
<g id="edge20" class="edge">
<title>e2:e32&#45;&gt;out:o2</title>
<path fill="none" stroke="black" d="M435.21,-848C435.21,-830.63 446.44,-825.89 450.64,-813.26"/>
<polygon fill="black" stroke="black" points="454.16,-813.41 452.21,-803 447.24,-812.36 454.16,-813.41"/>
</g>
<!-- e2&#45;&gt;out -->
<g id="edge21" class="edge">
<title>e2:e53&#45;&gt;out:o3</title>
<path fill="none" stroke="black" d="M500.21,-848C500.21,-828.87 518.04,-826.4 524.17,-813"/>
<polygon fill="black" stroke="black" points="527.64,-813.5 526.21,-803 520.79,-812.1 527.64,-813.5"/>
</g>
<!-- out&#45;&gt;mse -->
<g id="edge22" class="edge">
<title>out:o0&#45;&gt;mse</title>
<path fill="none" stroke="black" d="M304.21,-777C304.21,-756.37 363.46,-748.17 404.03,-744.97"/>
<polygon fill="black" stroke="black" points="404.42,-748.45 414.15,-744.25 403.92,-741.47 404.42,-748.45"/>
</g>
<!-- out&#45;&gt;mse -->
<g id="edge23" class="edge">
<title>out:o1&#45;&gt;mse</title>
<path fill="none" stroke="black" d="M378.21,-777C378.21,-762.86 390.65,-754.58 404.47,-749.73"/>
<polygon fill="black" stroke="black" points="405.52,-753.07 414.13,-746.9 403.55,-746.36 405.52,-753.07"/>
</g>
<!-- out&#45;&gt;mse -->
<g id="edge24" class="edge">
<title>out:o2&#45;&gt;mse</title>
<path fill="none" stroke="black" d="M452.21,-777C452.21,-772.46 451.32,-767.74 450.03,-763.32"/>
<polygon fill="black" stroke="black" points="453.27,-761.96 446.58,-753.74 446.68,-764.33 453.27,-761.96"/>
</g>
<!-- out&#45;&gt;mse -->
<g id="edge25" class="edge">
<title>out:o3&#45;&gt;mse</title>
<path fill="none" stroke="black" d="M526.21,-777C526.21,-755.09 501.56,-746.91 478.8,-744.04"/>
<polygon fill="black" stroke="black" points="478.86,-740.53 468.58,-743.06 478.2,-747.5 478.86,-740.53"/>
</g>
<!-- sdb -->
<g id="node21" class="node">
<title>sdb</title>
<polygon fill="none" stroke="black" points="75.21,-1269.5 75.21,-1315.5 233.21,-1315.5 233.21,-1269.5 75.21,-1269.5"/>
<text text-anchor="middle" x="154.21" y="-1300.3" font-family="Times,serif" font-size="14.00">STRINGdb</text>
<polyline fill="none" stroke="black" points="75.21,-1292.5 233.21,-1292.5 "/>
<text text-anchor="middle" x="154.21" y="-1277.3" font-family="Times,serif" font-size="14.00">protein interactions</text>
</g>
<!-- ortho&#45;&gt;sdb -->
<g id="edge49" class="edge">
<title>ortho:mm&#45;&gt;sdb</title>
<path fill="none" stroke="black" d="M87.21,-1324C87.21,-1323.9 87.21,-1323.81 87.21,-1323.71"/>
<polygon fill="black" stroke="black" points="90.28,-1326.19 88.87,-1315.69 83.42,-1324.78 90.28,-1326.19"/>
</g>
<!-- ortho&#45;&gt;sdb -->
<g id="edge50" class="edge">
<title>ortho:hs&#45;&gt;sdb</title>
<path fill="none" stroke="black" d="M187.21,-1324C187.21,-1323.91 187.21,-1323.81 187.21,-1323.72"/>
<polygon fill="black" stroke="black" points="191.03,-1324.61 185.25,-1315.73 184.24,-1326.28 191.03,-1324.61"/>
</g>
<!-- prot -->
<g id="node22" class="node">
<title>prot</title>
<polygon fill="none" stroke="black" points="33.71,-1122 33.71,-1160 184.71,-1160 184.71,-1122 33.71,-1122"/>
<text text-anchor="middle" x="109.21" y="-1144.8" font-family="Times,serif" font-size="14.00">protein interaction</text>
<text text-anchor="middle" x="109.21" y="-1129.8" font-family="Times,serif" font-size="14.00">network</text>
</g>
<!-- ortho&#45;&gt;prot -->
<g id="edge48" class="edge">
<title>ortho:ens&#45;&gt;prot</title>
<path fill="none" stroke="black" d="M32.21,-1359.5C-48.15,-1359.5 44.74,-1225.91 88.69,-1168.12"/>
<polygon fill="black" stroke="black" points="91.48,-1170.23 94.79,-1160.17 85.92,-1165.97 91.48,-1170.23"/>
</g>
<!-- sdb&#45;&gt;prot -->
<g id="edge51" class="edge">
<title>sdb&#45;&gt;prot</title>
<path fill="none" stroke="black" d="M147.57,-1269.44C139.65,-1243.11 126.38,-1199.03 117.71,-1170.23"/>
<polygon fill="black" stroke="black" points="120.98,-1168.95 114.75,-1160.38 114.28,-1170.96 120.98,-1168.95"/>
</g>
<!-- prot&#45;&gt;gene -->
<g id="edge52" class="edge">
<title>prot&#45;&gt;gene</title>
<path fill="none" stroke="black" d="M107.78,-1121.96C104.79,-1082.96 98.21,-987.84 98.21,-908 98.21,-908 98.21,-908 98.21,-638.5 98.21,-595.6 142.94,-572.03 183.87,-559.43"/>
<polygon fill="black" stroke="black" points="184.98,-562.75 193.61,-556.61 183.04,-556.03 184.98,-562.75"/>
</g>
<!-- d&#45;&gt;sil -->
<g id="edge44" class="edge">
<title>d&#45;&gt;sil</title>
<path fill="none" stroke="black" d="M215.62,-624.01C208.74,-620.68 202,-616.7 196.21,-612 168.66,-589.61 151.21,-581.5 151.21,-546 151.21,-546 151.21,-546 151.21,-327.5 151.21,-278.88 121.4,-229.06 100.14,-199.72"/>
<polygon fill="black" stroke="black" points="102.91,-197.58 94.13,-191.65 97.3,-201.76 102.91,-197.58"/>
</g>
<!-- d&#45;&gt;knn -->
<g id="edge32" class="edge">
<title>d&#45;&gt;knn</title>
<path fill="none" stroke="black" d="M260.21,-620.25C260.21,-620.17 260.21,-620.08 260.21,-619.99"/>
<polygon fill="black" stroke="black" points="263.71,-621.57 260.21,-611.57 256.71,-621.57 263.71,-621.57"/>
</g>
<!-- gene&#45;&gt;gsea0 -->
<g id="edge53" class="edge">
<title>gene&#45;&gt;gsea0</title>
<path fill="none" stroke="black" d="M252.05,-533.1C252.08,-532.93 252.11,-532.77 252.13,-532.61"/>
<polygon fill="black" stroke="black" points="255.25,-535.18 253.46,-524.74 248.35,-534.02 255.25,-535.18"/>
</g>
<!-- gene&#45;&gt;gsea1 -->
<g id="edge60" class="edge">
<title>gene&#45;&gt;gsea1</title>
<path fill="none" stroke="black" d="M200.05,-533.48C196.34,-531.18 192.98,-528.38 190.21,-525 171.55,-502.15 183.21,-488.5 183.21,-459 183.21,-459 183.21,-459 183.21,-327.5 183.21,-289.76 198.25,-249.79 212.74,-220.03"/>
<polygon fill="black" stroke="black" points="216.04,-221.24 217.4,-210.74 209.79,-218.1 216.04,-221.24"/>
</g>
<!-- leiden&#45;&gt;clust -->
<g id="edge35" class="edge">
<title>leiden&#45;&gt;clust</title>
<path fill="none" stroke="black" d="M260.21,-371.77C260.21,-368.78 260.21,-365.36 260.21,-361.8"/>
<polygon fill="black" stroke="black" points="263.71,-361.59 260.21,-351.59 256.71,-361.59 263.71,-361.59"/>
</g>
<!-- knnsub -->
<g id="node28" class="node">
<title>knnsub</title>
<polygon fill="none" stroke="black" points="385.71,-309.5 385.71,-347.5 474.71,-347.5 474.71,-309.5 385.71,-309.5"/>
<text text-anchor="middle" x="430.21" y="-332.3" font-family="Times,serif" font-size="14.00">reduced </text>
<text text-anchor="middle" x="430.21" y="-317.3" font-family="Times,serif" font-size="14.00">knn graph</text>
</g>
<!-- train&#45;&gt;knnsub -->
<g id="edge39" class="edge">
<title>train&#45;&gt;knnsub</title>
<path fill="none" stroke="black" d="M430.21,-360.33C430.21,-359.54 430.21,-358.75 430.21,-357.96"/>
<polygon fill="black" stroke="black" points="433.71,-357.73 430.21,-347.73 426.71,-357.73 433.71,-357.73"/>
</g>
<!-- test&#45;&gt;cv -->
<g id="edge42" class="edge">
<title>test&#45;&gt;cv</title>
<path fill="none" stroke="black" d="M510.11,-250.04C493.44,-232.29 470.48,-207.85 455.03,-191.41"/>
<polygon fill="black" stroke="black" points="457.51,-188.93 448.11,-184.04 452.41,-193.73 457.51,-188.93"/>
</g>
<!-- knnsub&#45;&gt;classifier -->
<g id="edge40" class="edge">
<title>knnsub&#45;&gt;classifier</title>
<path fill="none" stroke="black" d="M430.21,-309.26C430.21,-307.16 430.21,-304.97 430.21,-302.77"/>
<polygon fill="black" stroke="black" points="433.71,-302.59 430.21,-292.59 426.71,-302.59 433.71,-302.59"/>
</g>
<!-- classifier&#45;&gt;cv -->
<g id="edge41" class="edge">
<title>classifier&#45;&gt;cv</title>
<path fill="none" stroke="black" d="M431.68,-254.34C433.05,-237.41 435.09,-212.17 436.52,-194.4"/>
<polygon fill="black" stroke="black" points="440.03,-194.46 437.35,-184.21 433.05,-193.9 440.03,-194.46"/>
</g>
</g>
</svg>
