<?xml version="1.0" encoding="UTF-8" standalone="no"?>
<!DOCTYPE svg PUBLIC "-//W3C//DTD SVG 1.1//EN"
 "http://www.w3.org/Graphics/SVG/1.1/DTD/svg11.dtd">
<!-- Generated by graphviz version 2.43.0 (0)
 -->
<!-- Title: cluster0 Pages: 1 -->
<svg width="438pt" height="472pt"
 viewBox="0.00 0.00 437.50 472.00" xmlns="http://www.w3.org/2000/svg" xmlns:xlink="http://www.w3.org/1999/xlink">
<g id="graph0" class="graph" transform="scale(1 1) rotate(0) translate(4 468)">
<title>cluster0</title>
<polygon fill="white" stroke="transparent" points="-4,4 -4,-468 433.5,-468 433.5,4 -4,4"/>
<g id="clust4" class="cluster">
<title>clustersel</title>
<polygon fill="lightblue" stroke="lightblue" points="8,-126 8,-212 416,-212 416,-126 8,-126"/>
<text text-anchor="middle" x="212" y="-196.8" font-family="Times,serif" font-size="14.00">cluster selection</text>
</g>
<g id="clust5" class="cluster">
<title>clustereval</title>
<polygon fill="lightblue" stroke="lightblue" points="59,-8 59,-86 323,-86 323,-8 59,-8"/>
<text text-anchor="middle" x="191" y="-70.8" font-family="Times,serif" font-size="14.00">cluster evaluation</text>
</g>
<!-- ksel -->
<g id="node1" class="node">
<title>ksel</title>
<polygon fill="yellow" stroke="black" points="128.5,-220.5 128.5,-243.5 221.5,-243.5 221.5,-220.5 128.5,-220.5"/>
<text text-anchor="middle" x="175" y="-228.3" font-family="Times,serif" font-size="14.00">k selection</text>
</g>
<!-- cv -->
<g id="node4" class="node">
<title>cv</title>
<polygon fill="lightpink" stroke="black" points="112.5,-146 112.5,-169 237.5,-169 237.5,-146 112.5,-146"/>
<text text-anchor="middle" x="175" y="-153.8" font-family="Times,serif" font-size="14.00">crossvalidation</text>
</g>
<!-- ksel&#45;&gt;cv -->
<g id="edge7" class="edge">
<title>ksel&#45;&gt;cv</title>
<path fill="none" stroke="black" d="M175,-220.3C175,-209.59 175,-192.83 175,-179.46"/>
<polygon fill="black" stroke="black" points="178.5,-179.24 175,-169.24 171.5,-179.24 178.5,-179.24"/>
</g>
<!-- sil -->
<g id="node5" class="node">
<title>sil</title>
<polygon fill="lightpink" stroke="black" points="16,-138.5 16,-176.5 108,-176.5 108,-138.5 16,-138.5"/>
<text text-anchor="middle" x="62" y="-161.3" font-family="Times,serif" font-size="14.00">silhouette </text>
<text text-anchor="middle" x="62" y="-146.3" font-family="Times,serif" font-size="14.00">width</text>
</g>
<!-- ksel&#45;&gt;sil -->
<g id="edge8" class="edge">
<title>ksel&#45;&gt;sil</title>
<path fill="none" stroke="black" d="M129.34,-220.39C123.29,-218.09 117.34,-215.32 112,-212 100.53,-204.87 89.97,-194.44 81.53,-184.68"/>
<polygon fill="black" stroke="black" points="84.04,-182.22 74.98,-176.73 78.64,-186.67 84.04,-182.22"/>
</g>
<!-- gsea1 -->
<g id="node7" class="node">
<title>gsea1</title>
<polygon fill="lightpink" stroke="black" points="241.5,-134.5 241.5,-180.5 408.5,-180.5 408.5,-134.5 241.5,-134.5"/>
<text text-anchor="middle" x="325" y="-165.3" font-family="Times,serif" font-size="14.00">GSEA</text>
<polyline fill="none" stroke="black" points="241.5,-157.5 408.5,-157.5 "/>
<text text-anchor="middle" x="325" y="-142.3" font-family="Times,serif" font-size="14.00">sorted by modularity</text>
</g>
<!-- ksel&#45;&gt;gsea1 -->
<g id="edge9" class="edge">
<title>ksel&#45;&gt;gsea1</title>
<path fill="none" stroke="black" d="M215.56,-220.46C223.15,-218.02 230.91,-215.18 238,-212 253.94,-204.84 270.5,-195.27 284.84,-186.2"/>
<polygon fill="black" stroke="black" points="286.95,-189 293.46,-180.64 283.16,-183.12 286.95,-189"/>
</g>
<!-- ressel -->
<g id="node2" class="node">
<title>ressel</title>
<polygon fill="yellow" stroke="black" points="128.5,-94.5 128.5,-117.5 221.5,-117.5 221.5,-94.5 128.5,-94.5"/>
<text text-anchor="middle" x="175" y="-102.3" font-family="Times,serif" font-size="14.00">γ selection</text>
</g>
<!-- hyper -->
<g id="node8" class="node">
<title>hyper</title>
<polygon fill="lightpink" stroke="black" points="185,-16.5 185,-54.5 315,-54.5 315,-16.5 185,-16.5"/>
<text text-anchor="middle" x="250" y="-39.3" font-family="Times,serif" font-size="14.00">hypergeometric</text>
<text text-anchor="middle" x="250" y="-24.3" font-family="Times,serif" font-size="14.00">test</text>
</g>
<!-- ressel&#45;&gt;hyper -->
<g id="edge13" class="edge">
<title>ressel&#45;&gt;hyper</title>
<path fill="none" stroke="black" d="M186.72,-94.3C196.34,-85.51 210.35,-72.71 222.74,-61.4"/>
<polygon fill="black" stroke="black" points="225.17,-63.92 230.2,-54.59 220.45,-58.75 225.17,-63.92"/>
</g>
<!-- gene -->
<g id="node11" class="node">
<title>gene</title>
<polygon fill="none" stroke="black" points="67,-24 67,-47 181,-47 181,-24 67,-24"/>
<text text-anchor="middle" x="124" y="-31.8" font-family="Times,serif" font-size="14.00">gene network</text>
</g>
<!-- ressel&#45;&gt;gene -->
<g id="edge14" class="edge">
<title>ressel&#45;&gt;gene</title>
<path fill="none" stroke="black" d="M167.03,-94.3C159.37,-84 147.61,-68.21 138.32,-55.73"/>
<polygon fill="black" stroke="black" points="140.86,-53.28 132.08,-47.35 135.25,-57.47 140.86,-53.28"/>
</g>
<!-- e -->
<g id="node3" class="node">
<title>e</title>
<polygon fill="lightpink" stroke="black" points="101,-362.5 101,-408.5 207,-408.5 207,-362.5 101,-362.5"/>
<text text-anchor="middle" x="154" y="-393.3" font-family="Times,serif" font-size="14.00">autoencoder</text>
<polyline fill="none" stroke="black" points="101,-385.5 207,-385.5 "/>
<text text-anchor="middle" x="154" y="-370.3" font-family="Times,serif" font-size="14.00">2D encoding</text>
</g>
<!-- knn -->
<g id="node10" class="node">
<title>knn</title>
<polygon fill="lightgrey" stroke="black" points="91.5,-307.5 91.5,-353.5 216.5,-353.5 216.5,-307.5 91.5,-307.5"/>
<text text-anchor="middle" x="154" y="-338.3" font-family="Times,serif" font-size="14.00">knn graph</text>
<polyline fill="none" stroke="black" points="91.5,-330.5 216.5,-330.5 "/>
<text text-anchor="middle" x="154" y="-315.3" font-family="Times,serif" font-size="14.00">k ∈ {3,4,...,50}</text>
</g>
<!-- e&#45;&gt;knn -->
<g id="edge2" class="edge">
<title>e&#45;&gt;knn</title>
<path fill="none" stroke="black" d="M154,-362.33C154,-362.24 154,-362.15 154,-362.06"/>
<polygon fill="black" stroke="black" points="157.5,-363.75 154,-353.75 150.5,-363.75 157.5,-363.75"/>
</g>
<!-- cv&#45;&gt;ressel -->
<g id="edge10" class="edge">
<title>cv&#45;&gt;ressel</title>
<path fill="none" stroke="black" d="M175,-145.51C175,-140.32 175,-133.93 175,-127.86"/>
<polygon fill="black" stroke="black" points="178.5,-127.62 175,-117.62 171.5,-127.62 178.5,-127.62"/>
</g>
<!-- sil&#45;&gt;ressel -->
<g id="edge11" class="edge">
<title>sil&#45;&gt;ressel</title>
<path fill="none" stroke="black" d="M88.82,-138.42C96.14,-133.97 104.2,-129.49 112,-126 116.1,-124.17 120.43,-122.45 124.81,-120.85"/>
<polygon fill="black" stroke="black" points="126.12,-124.11 134.45,-117.56 123.85,-117.48 126.12,-124.11"/>
</g>
<!-- gsea0 -->
<g id="node6" class="node">
<title>gsea0</title>
<polygon fill="lightpink" stroke="black" points="111,-252.5 111,-298.5 239,-298.5 239,-252.5 111,-252.5"/>
<text text-anchor="middle" x="175" y="-283.3" font-family="Times,serif" font-size="14.00">GSEA</text>
<polyline fill="none" stroke="black" points="111,-275.5 239,-275.5 "/>
<text text-anchor="middle" x="175" y="-260.3" font-family="Times,serif" font-size="14.00">sorted by count</text>
</g>
<!-- gsea0&#45;&gt;ksel -->
<g id="edge6" class="edge">
<title>gsea0&#45;&gt;ksel</title>
<path fill="none" stroke="black" d="M175,-252.29C175,-252.2 175,-252.11 175,-252.02"/>
<polygon fill="black" stroke="black" points="178.5,-253.86 175,-243.86 171.5,-253.86 178.5,-253.86"/>
</g>
<!-- gsea1&#45;&gt;ressel -->
<g id="edge12" class="edge">
<title>gsea1&#45;&gt;ressel</title>
<path fill="none" stroke="black" d="M262.86,-134.34C254.52,-131.48 246.07,-128.63 238,-126 232.43,-124.19 226.57,-122.34 220.75,-120.54"/>
<polygon fill="black" stroke="black" points="221.65,-117.15 211.07,-117.58 219.61,-123.85 221.65,-117.15"/>
</g>
<!-- b -->
<g id="node9" class="node">
<title>b</title>
<polygon fill="lightgrey" stroke="black" points="61.5,-417.5 61.5,-463.5 246.5,-463.5 246.5,-417.5 61.5,-417.5"/>
<text text-anchor="middle" x="154" y="-448.3" font-family="Times,serif" font-size="14.00">preprocessing</text>
<polyline fill="none" stroke="black" points="61.5,-440.5 246.5,-440.5 "/>
<text text-anchor="middle" x="154" y="-425.3" font-family="Times,serif" font-size="14.00">114 summary statistics</text>
</g>
<!-- b&#45;&gt;e -->
<g id="edge1" class="edge">
<title>b&#45;&gt;e</title>
<path fill="none" stroke="black" d="M154,-417.33C154,-417.24 154,-417.15 154,-417.06"/>
<polygon fill="black" stroke="black" points="157.5,-418.75 154,-408.75 150.5,-418.75 157.5,-418.75"/>
</g>
<!-- knn&#45;&gt;gsea0 -->
<g id="edge3" class="edge">
<title>knn&#45;&gt;gsea0</title>
<path fill="none" stroke="black" d="M162.78,-307.33C162.82,-307.24 162.85,-307.15 162.89,-307.06"/>
<polygon fill="black" stroke="black" points="165.75,-309.34 166.18,-298.75 159.25,-306.76 165.75,-309.34"/>
</g>
<!-- prot -->
<g id="node12" class="node">
<title>prot</title>
<polygon fill="none" stroke="black" points="220.5,-307.5 220.5,-353.5 429.5,-353.5 429.5,-307.5 220.5,-307.5"/>
<text text-anchor="middle" x="325" y="-338.3" font-family="Times,serif" font-size="14.00">STRINGdb</text>
<polyline fill="none" stroke="black" points="220.5,-330.5 429.5,-330.5 "/>
<text text-anchor="middle" x="325" y="-315.3" font-family="Times,serif" font-size="14.00">known protein interactions</text>
</g>
<!-- prot&#45;&gt;gsea0 -->
<g id="edge4" class="edge">
<title>prot&#45;&gt;gsea0</title>
<path fill="none" stroke="black" d="M262.69,-307.48C257.46,-305.64 252.14,-303.76 246.84,-301.89"/>
<polygon fill="black" stroke="black" points="247.95,-298.56 237.36,-298.53 245.62,-305.16 247.95,-298.56"/>
</g>
<!-- prot&#45;&gt;gsea1 -->
<g id="edge5" class="edge">
<title>prot&#45;&gt;gsea1</title>
<path fill="none" stroke="black" d="M325,-307.49C325,-277.95 325,-225.23 325,-191.07"/>
<polygon fill="black" stroke="black" points="328.5,-190.69 325,-180.69 321.5,-190.69 328.5,-190.69"/>
</g>
</g>
</svg>
